<svg width="20" height="14" viewBox="0 0 20 14" fill="none" xmlns="http://www.w3.org/2000/svg">
<path d="M12.7273 8.75C10.3 8.75 5.45455 9.91375 5.45455 12.25V14H20V12.25C20 9.91375 15.1545 8.75 12.7273 8.75ZM12.7273 7C13.6917 7 14.6166 6.63125 15.2986 5.97487C15.9805 5.3185 16.3636 4.42826 16.3636 3.5C16.3636 2.57174 15.9805 1.6815 15.2986 1.02513C14.6166 0.368749 13.6917 0 12.7273 0C11.7628 0 10.8379 0.368749 10.156 1.02513C9.47402 1.6815 9.09091 2.57174 9.09091 3.5C9.09091 4.42826 9.47402 5.3185 10.156 5.97487C10.8379 6.63125 11.7628 7 12.7273 7ZM3.63636 8.12L5.86364 9.42375L5.27273 6.965L7.27273 5.32L4.64545 5.10125L3.63636 2.79125L2.60909 5.10125L0 5.32L1.98182 6.965L1.36364 9.42375L3.63636 8.12Z" fill="white"/>
</svg>
