<svg width="21" height="22" viewBox="0 0 21 22" fill="none" xmlns="http://www.w3.org/2000/svg">
<mask id="mask0_55_5260" style="mask-type:luminance" maskUnits="userSpaceOnUse" x="0" y="0" width="21" height="22">
<path d="M2 3.34999C2 2.99195 2.14139 2.64858 2.39308 2.3954C2.64476 2.14223 2.98611 2 3.34204 2H14.0784C14.4343 2 14.7757 2.14223 15.0274 2.3954C15.2791 2.64858 15.4204 2.99195 15.4204 3.34999V19.9999H3.34204C2.98611 19.9999 2.64476 19.8577 2.39308 19.6045C2.14139 19.3513 2 19.008 2 18.6499V3.34999Z" fill="white" stroke="white" stroke-width="4" stroke-linejoin="round"/>
<path d="M15.4209 11.0001C15.4209 10.7614 15.5152 10.5325 15.6829 10.3637C15.8507 10.1949 16.0783 10.1001 16.3156 10.1001H18.105C18.3423 10.1001 18.5698 10.1949 18.7376 10.3637C18.9054 10.5325 18.9997 10.7614 18.9997 11.0001V18.6501C18.9997 19.0081 18.8583 19.3515 18.6066 19.6046C18.3549 19.8578 18.0136 20 17.6576 20H15.4209V11.0001Z" stroke="white" stroke-width="4" stroke-linejoin="round"/>
<path d="M4.68457 5.6001H8.26336M4.68457 8.75008H10.0527" stroke="black" stroke-width="4" stroke-linecap="round" stroke-linejoin="round"/>
</mask>
<g mask="url(#mask0_55_5260)">
<path d="M-0.0791016 -0.160156H21.3936V21.4397H-0.0791016V-0.160156Z" fill="white"/>
</g>
</svg>
