<svg width="24" height="24" viewBox="0 0 24 24" fill="none" xmlns="http://www.w3.org/2000/svg">
<path d="M9.88299 2.20691C10.3587 2.15085 10.8379 2.27651 11.2249 2.55872C11.6119 2.84093 11.878 3.25888 11.97 3.72891L11.995 3.89591L12 3.99991V10.9999C12 11.2448 12.0899 11.4812 12.2527 11.6643C12.4155 11.8473 12.6397 11.9643 12.883 11.9929L13 11.9999H19.8C20.3304 11.9999 20.8391 12.2106 21.2142 12.5857C21.5893 12.9608 21.8 13.4695 21.8 13.9999C21.8 14.076 21.7912 14.1518 21.774 14.2259C21.3738 15.9526 20.5219 17.5418 19.3055 18.831C18.0891 20.1201 16.5519 21.0628 14.8513 21.5624C13.1508 22.0621 11.348 22.1008 9.62757 21.6746C7.90715 21.2484 6.33092 20.3726 5.06029 19.1369C3.78967 17.9011 2.87031 16.3499 2.39636 14.642C1.92242 12.9341 1.91092 11.1309 2.36305 9.41715C2.81517 7.70336 3.71468 6.14052 4.96944 4.88869C6.22421 3.63686 7.78914 2.74102 9.50399 2.29291L9.77399 2.22591L9.88399 2.20591L9.88299 2.20691Z" fill="white"/>
<path d="M14 3.50007V9.00007C14 9.26529 14.1054 9.51964 14.2929 9.70718C14.4804 9.89472 14.7348 10.0001 15 10.0001H20.5C20.6598 10 20.8173 9.96167 20.9593 9.88821C21.1013 9.81476 21.2235 9.70834 21.3159 9.57789C21.4082 9.44743 21.468 9.29674 21.4901 9.13844C21.5122 8.98014 21.4961 8.81885 21.443 8.66807C20.9463 7.25741 20.1396 5.9761 19.0822 4.91851C18.0248 3.86091 16.7436 3.05396 15.333 2.55707C15.1822 2.50381 15.0208 2.4875 14.8623 2.50952C14.7039 2.53154 14.5531 2.59125 14.4225 2.68363C14.2919 2.77601 14.1854 2.89836 14.1119 3.04043C14.0383 3.18249 14 3.34012 14 3.50007Z" fill="white"/>
</svg>
