<svg width="30" height="20" viewBox="0 0 30 20" fill="none" xmlns="http://www.w3.org/2000/svg">
<path d="M1.66667 12C2.58333 12 3.33333 11.1 3.33333 10C3.33333 8.9 2.58333 8 1.66667 8C0.75 8 0 8.9 0 10C0 11.1 0.75 12 1.66667 12ZM1.66667 20C2.58333 20 3.33333 19.1 3.33333 18C3.33333 16.9 2.58333 16 1.66667 16C0.75 16 0 16.9 0 18C0 19.1 0.75 20 1.66667 20ZM1.66667 4C2.58333 4 3.33333 3.1 3.33333 2C3.33333 0.9 2.58333 0 1.66667 0C0.75 0 0 0.9 0 2C0 3.1 0.75 4 1.66667 4ZM8.33333 12H28.3333C29.25 12 30 11.1 30 10C30 8.9 29.25 8 28.3333 8H8.33333C7.41667 8 6.66667 8.9 6.66667 10C6.66667 11.1 7.41667 12 8.33333 12ZM8.33333 20H28.3333C29.25 20 30 19.1 30 18C30 16.9 29.25 16 28.3333 16H8.33333C7.41667 16 6.66667 16.9 6.66667 18C6.66667 19.1 7.41667 20 8.33333 20ZM6.66667 2C6.66667 3.1 7.41667 4 8.33333 4H28.3333C29.25 4 30 3.1 30 2C30 0.9 29.25 0 28.3333 0H8.33333C7.41667 0 6.66667 0.9 6.66667 2ZM1.66667 12C2.58333 12 3.33333 11.1 3.33333 10C3.33333 8.9 2.58333 8 1.66667 8C0.75 8 0 8.9 0 10C0 11.1 0.75 12 1.66667 12ZM1.66667 20C2.58333 20 3.33333 19.1 3.33333 18C3.33333 16.9 2.58333 16 1.66667 16C0.75 16 0 16.9 0 18C0 19.1 0.75 20 1.66667 20ZM1.66667 4C2.58333 4 3.33333 3.1 3.33333 2C3.33333 0.9 2.58333 0 1.66667 0C0.75 0 0 0.9 0 2C0 3.1 0.75 4 1.66667 4ZM8.33333 12H28.3333C29.25 12 30 11.1 30 10C30 8.9 29.25 8 28.3333 8H8.33333C7.41667 8 6.66667 8.9 6.66667 10C6.66667 11.1 7.41667 12 8.33333 12ZM8.33333 20H28.3333C29.25 20 30 19.1 30 18C30 16.9 29.25 16 28.3333 16H8.33333C7.41667 16 6.66667 16.9 6.66667 18C6.66667 19.1 7.41667 20 8.33333 20ZM6.66667 2C6.66667 3.1 7.41667 4 8.33333 4H28.3333C29.25 4 30 3.1 30 2C30 0.9 29.25 0 28.3333 0H8.33333C7.41667 0 6.66667 0.9 6.66667 2Z" fill="white"/>
</svg>
