<svg width="30" height="26" viewBox="0 0 30 26" fill="none" xmlns="http://www.w3.org/2000/svg">
<path d="M27.2222 6.00392H19.0278L22.85 2.5646C23.1631 2.28286 23.339 1.90074 23.339 1.50231C23.339 1.10387 23.1631 0.721753 22.85 0.440016C22.5369 0.158278 22.1122 0 21.6694 0C21.2267 0 20.802 0.158278 20.4889 0.440016L15 5.37905L9.5125 0.443765C9.1994 0.162028 8.77474 0.00374923 8.33194 0.00374923C7.88915 0.00374923 7.46449 0.162028 7.15139 0.443765C6.83829 0.725502 6.66239 1.10762 6.66239 1.50606C6.66239 1.90449 6.83829 2.28661 7.15139 2.56835L10.9722 6.00392H2.77778C2.04107 6.00392 1.33453 6.26726 0.813592 6.73601C0.292658 7.20476 0 7.84052 0 8.50343V23.5005C0 24.1634 0.292658 24.7992 0.813592 25.2679C1.33453 25.7367 2.04107 26 2.77778 26H27.2222C27.9589 26 28.6655 25.7367 29.1864 25.2679C29.7073 24.7992 30 24.1634 30 23.5005V8.50343C30 7.84052 29.7073 7.20476 29.1864 6.73601C28.6655 6.26726 27.9589 6.00392 27.2222 6.00392ZM3.33333 9.00334H15V23.0006H3.33333V9.00334ZM26.6667 23.0006H18.3333V9.00334H26.6667V23.0006ZM20.5556 13.0026C20.5556 12.6071 20.6859 12.2205 20.9301 11.8916C21.1742 11.5628 21.5213 11.3065 21.9274 11.1552C22.3334 11.0038 22.7802 10.9642 23.2113 11.0414C23.6424 11.1185 24.0383 11.309 24.3491 11.5886C24.6599 11.8683 24.8716 12.2246 24.9573 12.6124C25.043 13.0003 24.999 13.4024 24.8308 13.7678C24.6627 14.1331 24.3778 14.4454 24.0124 14.6652C23.6469 14.8849 23.2173 15.0022 22.7778 15.0022C22.1884 15.0022 21.6232 14.7915 21.2064 14.4165C20.7897 14.0415 20.5556 13.5329 20.5556 13.0026ZM25 19.0014C25 19.3969 24.8697 19.7835 24.6255 20.1123C24.3813 20.4411 24.0342 20.6974 23.6282 20.8488C23.2221 21.0001 22.7753 21.0397 22.3442 20.9626C21.9132 20.8854 21.5172 20.695 21.2064 20.4153C20.8956 20.1357 20.684 19.7794 20.5983 19.3915C20.5125 19.0036 20.5565 18.6015 20.7247 18.2362C20.8929 17.8708 21.1777 17.5585 21.5432 17.3388C21.9086 17.119 22.3383 17.0018 22.7778 17.0018C23.3671 17.0018 23.9324 17.2124 24.3491 17.5874C24.7659 17.9624 25 18.471 25 19.0014Z" fill="white"/>
</svg>
