<svg width="30" height="34" viewBox="0 0 30 34" fill="none" xmlns="http://www.w3.org/2000/svg">
<g clip-path="url(#clip0_183_5212)">
<path d="M30 28.1341C30 29.7426 29.5117 31.1224 28.5352 32.2734C27.5586 33.4245 26.3828 34 25.0078 34H4.99219C3.61719 34 2.44141 33.4245 1.46484 32.2734C0.488281 31.1224 0 29.7426 0 28.1341C0 26.8798 0.0664063 25.6955 0.199219 24.5814C0.332031 23.4672 0.578125 22.3457 0.9375 21.2168C1.29687 20.0879 1.75391 19.1213 2.30859 18.3171C2.86328 17.5128 3.59766 16.8561 4.51172 16.347C5.42578 15.8379 6.47656 15.5833 7.66406 15.5833C9.71094 17.4722 12.1562 18.4167 15 18.4167C17.8438 18.4167 20.2891 17.4722 22.3359 15.5833C23.5234 15.5833 24.5742 15.8379 25.4883 16.347C26.4023 16.8561 27.1367 17.5128 27.6914 18.3171C28.2461 19.1213 28.7031 20.0879 29.0625 21.2168C29.4219 22.3457 29.668 23.4672 29.8008 24.5814C29.9336 25.6955 30 26.8798 30 28.1341ZM24 8.5C24 10.8464 23.1211 12.8496 21.3633 14.5098C19.6055 16.1699 17.4844 17 15 17C12.5156 17 10.3945 16.1699 8.63672 14.5098C6.87891 12.8496 6 10.8464 6 8.5C6 6.15365 6.87891 4.15039 8.63672 2.49023C10.3945 0.830078 12.5156 0 15 0C17.4844 0 19.6055 0.830078 21.3633 2.49023C23.1211 4.15039 24 6.15365 24 8.5Z" fill="white"/>
</g>
<defs>
<clipPath id="clip0_183_5212">
<rect width="30" height="34" fill="white"/>
</clipPath>
</defs>
</svg>
