<svg width="30" height="30" viewBox="0 0 30 30" fill="none" xmlns="http://www.w3.org/2000/svg">
<g clip-path="url(#clip0_81_4083)">
<path d="M16.725 25.6312L13.7062 22.7624L10.8937 20.0999L14.6437 19.5562L18.8625 18.9562L19.4063 17.8874H19.3688C18.9384 17.8876 18.5211 17.7398 18.1868 17.4687C17.8526 17.1976 17.6218 16.8198 17.5331 16.3987C17.5312 15.2418 19.0312 15.6168 20.2125 13.6668C20.3625 13.6293 25.5 -0.00195312 15 -0.00195312C4.5 -0.00195312 9.6375 13.6293 9.6375 13.6293C10.8187 15.5043 12.3375 15.223 12.3188 16.348C12.3 17.473 10.9312 17.848 9.6375 17.9793C7.5 18.223 5.625 17.7355 3.75 21.2793C2.625 23.323 2.15625 29.998 2.15625 29.998H15.9563V29.6793L16.725 25.6312ZM21.975 29.9999H23.025L22.5 29.7374L21.975 29.9999Z" fill="white"/>
<path d="M22.5 27.6184L27.1313 29.9996L26.25 24.9559L30 21.3934L24.825 20.6621L22.5 16.0684L20.175 20.6621L15 21.3934L18.75 24.9559L17.8687 29.9996L22.5 27.6184Z" fill="white"/>
</g>
<defs>
<clipPath id="clip0_81_4083">
<rect width="30" height="30" fill="white"/>
</clipPath>
</defs>
</svg>
