<svg width="20" height="15" viewBox="0 0 20 15" fill="none" xmlns="http://www.w3.org/2000/svg">
<path d="M13.6523 12.3477V14.1523H0.847656V12.3477L0.890625 11.9609C0.947917 11.6458 1.0625 11.3451 1.23438 11.0586C1.49219 10.6289 1.82161 10.2565 2.22266 9.94141C2.73828 9.56901 3.36849 9.26823 4.11328 9.03906C5.0013 8.78125 6.04688 8.65234 7.25 8.65234C9.14062 8.65234 10.6445 8.96745 11.7617 9.59766C12.5638 10.056 13.1224 10.6576 13.4375 11.4023C13.5807 11.7461 13.6523 12.0612 13.6523 12.3477ZM10.4727 3.625C10.4727 2.96615 10.2865 2.37891 9.91406 1.86328C9.54167 1.31901 9.05469 0.917969 8.45312 0.660156C7.88021 0.402344 7.26432 0.345052 6.60547 0.488281C5.97526 0.602865 5.43099 0.889323 4.97266 1.34766C4.51432 1.80599 4.21354 2.36458 4.07031 3.02344C3.95573 3.65365 4.02734 4.26953 4.28516 4.87109C4.54297 5.44401 4.92969 5.91667 5.44531 6.28906C5.98958 6.66146 6.59115 6.84766 7.25 6.84766C8.13802 6.84766 8.89714 6.53255 9.52734 5.90234C10.1576 5.27214 10.4727 4.51302 10.4727 3.625ZM13.6094 8.65234C14.1823 9.11068 14.6263 9.66927 14.9414 10.3281C15.2852 10.9583 15.4714 11.6315 15.5 12.3477V14.1523H19.1523V12.3477L19.1094 12.0039C19.0521 11.7174 18.9518 11.431 18.8086 11.1445C18.6081 10.7435 18.3216 10.3997 17.9492 10.1133C17.5195 9.71224 16.9753 9.39714 16.3164 9.16797C15.543 8.91016 14.6406 8.73828 13.6094 8.65234ZM12.75 0.402344C12.0911 0.402344 11.5039 0.588542 10.9883 0.960938C11.5612 1.76302 11.8477 2.65104 11.8477 3.625C11.8477 4.59896 11.5612 5.48698 10.9883 6.28906C11.5039 6.66146 12.0911 6.84766 12.75 6.84766C13.638 6.84766 14.3971 6.53255 15.0273 5.90234C15.6576 5.27214 15.9727 4.51302 15.9727 3.625C15.9727 2.73698 15.6576 1.97786 15.0273 1.34766C14.3971 0.717448 13.638 0.402344 12.75 0.402344Z" fill="white"/>
</svg>
