<svg width="36" height="35" viewBox="0 0 36 35" fill="none" xmlns="http://www.w3.org/2000/svg">
<g clip-path="url(#clip0_808_4221)">
<path d="M35.4198 17.8274C35.4198 16.3935 35.3008 15.3471 35.043 14.262H18.2852V20.734H28.1217C27.9234 22.3424 26.8525 24.7646 24.4726 26.3923L24.4393 26.6089L29.7378 30.6197L30.1049 30.6555C33.4763 27.6131 35.4198 23.1369 35.4198 17.8274Z" fill="#4285F4"/>
<path d="M18.2852 34.8798C23.1042 34.8798 27.1499 33.3295 30.1049 30.6555L24.4726 26.3923C22.9655 27.4193 20.9426 28.1363 18.2852 28.1363C13.5652 28.1363 9.55922 25.0941 8.13119 20.8892L7.92188 20.9065L2.41238 25.0727L2.34033 25.2684C5.27541 30.9654 11.3043 34.8798 18.2852 34.8798Z" fill="#34A853"/>
<path d="M8.13119 20.8891C7.75439 19.8039 7.53633 18.6412 7.53633 17.4398C7.53633 16.2384 7.75439 15.0757 8.11137 13.9906L8.10139 13.7595L2.52285 9.52637L2.34033 9.6112C1.13064 11.9753 0.436523 14.6301 0.436523 17.4398C0.436523 20.2496 1.13064 22.9042 2.34033 25.2684L8.13119 20.8891Z" fill="#FBBC05"/>
<path d="M18.2852 6.74338C21.6367 6.74338 23.8975 8.15794 25.1866 9.34006L30.2238 4.53437C27.1302 1.72462 23.1042 0 18.2852 0C11.3043 0 5.27541 3.91426 2.34033 9.61124L8.11137 13.9907C9.55922 9.78571 13.5652 6.74338 18.2852 6.74338Z" fill="#EB4335"/>
</g>
<defs>
<clipPath id="clip0_808_4221">
<rect width="35" height="35" fill="white" transform="translate(0.436523)"/>
</clipPath>
</defs>
</svg>
