<svg width="590" height="450" viewBox="60 0 730 580" fill="none" xmlns="http://www.w3.org/2000/svg">
<g filter="url(#filter0_d_671_551)">
<g filter="url(#filter1_d_671_551)">
<rect x="559.956" y="491.25" width="138.043" height="41.75" rx="20.875" fill="white"/>
</g>
<g clip-path="url(#clip0_671_551)">
<path d="M594.444 509.112C596.448 510.271 598.903 510.953 601.555 510.953V506.824C601.053 506.824 600.552 506.782 600.061 506.698V509.948C597.41 509.948 594.955 509.266 592.95 508.106V516.534C592.95 520.75 588.728 524.167 583.519 524.167C581.576 524.167 579.769 523.691 578.269 522.876C579.981 524.293 582.37 525.172 585.012 525.172C590.221 525.172 594.444 521.755 594.444 517.539V509.112L594.444 509.112ZM596.286 504.946C595.232 504.016 594.585 502.832 594.444 501.576V501.045H593.028C593.385 502.689 594.6 504.094 596.286 504.946ZM581.563 519.641C580.991 519.033 580.682 518.291 580.683 517.527C580.683 515.599 582.614 514.035 584.997 514.035C585.441 514.035 585.883 514.09 586.306 514.199V509.977C585.811 509.922 585.312 509.899 584.813 509.907V513.194C584.39 513.085 583.948 513.03 583.504 513.03C581.121 513.03 579.19 514.593 579.19 516.522C579.19 517.885 580.155 519.066 581.563 519.641Z" fill="#FF004F"/>
<path d="M592.95 508.106C594.955 509.266 597.41 509.948 600.061 509.948V506.697C598.608 506.446 597.288 505.833 596.286 504.946C594.599 504.094 593.384 502.689 593.028 501.045H589.311V517.539C589.303 519.462 587.374 521.019 584.997 521.019C583.596 521.019 582.351 520.478 581.562 519.641C580.155 519.066 579.189 517.885 579.189 516.522C579.189 514.593 581.12 513.03 583.503 513.03C583.96 513.03 584.4 513.088 584.813 513.194V509.908C579.696 509.993 575.58 513.377 575.58 517.539C575.58 519.616 576.605 521.5 578.268 522.876C579.821 523.72 581.649 524.169 583.519 524.167C588.728 524.167 592.95 520.749 592.95 516.534L592.95 508.106Z" fill="black"/>
<path d="M600.061 506.697V505.818C598.726 505.82 597.418 505.518 596.286 504.946C597.288 505.834 598.608 506.446 600.061 506.697ZM593.028 501.045C592.994 500.888 592.968 500.73 592.95 500.571V500.04H587.818V516.534C587.809 518.456 585.881 520.013 583.503 520.013C582.829 520.014 582.164 519.887 581.562 519.641C582.351 520.478 583.596 521.019 584.997 521.019C587.374 521.019 589.303 519.462 589.311 517.539V501.045L593.028 501.045ZM584.813 509.908V508.972C584.384 508.925 583.952 508.901 583.519 508.901C578.31 508.901 574.087 512.318 574.087 516.534C574.087 519.176 575.747 521.506 578.269 522.876C576.605 521.5 575.58 519.616 575.58 517.539C575.58 513.377 579.696 509.993 584.813 509.908Z" fill="#00F2EA"/>
<path d="M659.531 520.711C663.258 520.711 666.279 518.284 666.279 515.291C666.279 512.298 663.258 509.87 659.531 509.87H658.514C662.241 509.87 665.262 512.298 665.262 515.291C665.262 518.284 662.241 520.711 658.514 520.711H659.531H659.531Z" fill="#FF004F"/>
<path d="M658.422 509.87H657.405C653.678 509.87 650.656 512.298 650.656 515.291C650.656 518.284 653.678 520.711 657.405 520.711H658.422C654.695 520.711 651.673 518.284 651.673 515.291C651.673 512.298 654.695 509.87 658.422 509.87Z" fill="#00F2EA"/>
<path d="M629.579 507.421V513.583L633.461 510.464H638.175L633.276 514.325L638.73 520.711H634.571L630.781 516.33L629.579 517.222V520.637H625.696V507.421H629.579ZM671.456 507.421V513.583L675.339 510.464H680.053L675.154 514.325L680.608 520.711H676.448L672.658 516.33L671.456 517.222V520.637H667.573V507.421H671.456ZM658.513 509.87C662.24 509.87 665.262 512.298 665.262 515.291C665.262 518.284 662.24 520.711 658.513 520.711H658.421C654.694 520.711 651.673 518.284 651.673 515.291C651.673 512.298 654.694 509.87 658.421 509.87H658.513ZM619.41 507.421L618.301 510.242H615.066V520.637H611.09V510.168H607.115V507.42H619.41L619.41 507.421ZM651.95 507.421L650.841 510.242H647.606V520.637H643.63V510.168H639.656V507.42L651.95 507.421ZM624.032 511.653V520.637H620.15V511.653H624.032ZM658.468 512.655C656.656 512.655 655.185 513.835 655.185 515.291C655.185 516.747 656.656 517.927 658.468 517.927C660.28 517.927 661.749 516.747 661.749 515.291C661.749 513.835 660.28 512.655 658.468 512.655ZM622.09 507.421C623.163 507.421 624.032 508.119 624.032 508.98C624.032 509.841 623.164 510.539 622.09 510.539C621.018 510.539 620.15 509.841 620.15 508.98C620.15 508.119 621.018 507.421 622.09 507.421Z" fill="black"/>
</g>
</g>
<g filter="url(#filter2_d_671_551)">
<g filter="url(#filter3_d_671_551)">
<rect x="155.608" y="32" width="60.8696" height="59.3289" rx="29.6645" fill="white"/>
</g>
<g clip-path="url(#clip1_671_551)">
<path d="M202.348 62.7772C202.348 53.0687 195.048 45.1982 186.044 45.1982C177.039 45.1982 169.739 53.0685 169.739 62.7772C169.739 71.5513 175.702 78.8239 183.496 80.1426V67.8586H179.356V62.7772H183.496V58.9043C183.496 54.4986 185.93 52.065 189.654 52.065C191.438 52.065 193.304 52.4084 193.304 52.4084V56.7344H191.248C189.223 56.7344 188.591 58.0895 188.591 59.4798V62.7772H193.113L192.39 67.8586H188.591V80.1426C196.386 78.8239 202.348 71.5514 202.348 62.7772Z" fill="#1877F2"/>
<path d="M192.39 66.7457L193.113 61.6643H188.591V58.3669C188.591 56.9765 189.223 55.6216 191.248 55.6216H193.304V51.2955C193.304 51.2955 191.438 50.9521 189.655 50.9521C185.93 50.9521 183.496 53.3857 183.496 57.7915V61.6643H179.356V66.7457H183.496V79.0297C184.339 79.1721 185.191 79.2435 186.044 79.2433C186.897 79.2435 187.749 79.1721 188.591 79.0297V66.7457H192.39Z" fill="white"/>
</g>
</g>
<g filter="url(#filter4_d_671_551)">
<rect x="48" y="295.684" width="202.174" height="46.1447" rx="23.0724" fill="white"/>
</g>
<path d="M115.994 327.437C115.994 326.621 116.178 325.889 116.546 325.241C116.914 324.585 117.414 324.073 118.046 323.705C118.686 323.337 119.394 323.153 120.17 323.153C121.082 323.153 121.878 323.373 122.558 323.813C123.238 324.253 123.734 324.877 124.046 325.685H122.738C122.506 325.181 122.17 324.793 121.73 324.521C121.298 324.249 120.778 324.113 120.17 324.113C119.586 324.113 119.062 324.249 118.598 324.521C118.134 324.793 117.77 325.181 117.506 325.685C117.242 326.181 117.11 326.765 117.11 327.437C117.11 328.101 117.242 328.685 117.506 329.189C117.77 329.685 118.134 330.069 118.598 330.341C119.062 330.613 119.586 330.749 120.17 330.749C120.778 330.749 121.298 330.617 121.73 330.353C122.17 330.081 122.506 329.693 122.738 329.189H124.046C123.734 329.989 123.238 330.609 122.558 331.049C121.878 331.481 121.082 331.697 120.17 331.697C119.394 331.697 118.686 331.517 118.046 331.157C117.414 330.789 116.914 330.281 116.546 329.633C116.178 328.985 115.994 328.253 115.994 327.437ZM131.504 325.049V331.625H130.412V330.653C130.204 330.989 129.912 331.253 129.536 331.445C129.168 331.629 128.76 331.721 128.312 331.721C127.8 331.721 127.34 331.617 126.932 331.409C126.524 331.193 126.2 330.873 125.96 330.449C125.728 330.025 125.612 329.509 125.612 328.901V325.049H126.692V328.757C126.692 329.405 126.856 329.905 127.184 330.257C127.512 330.601 127.96 330.773 128.528 330.773C129.112 330.773 129.572 330.593 129.908 330.233C130.244 329.873 130.412 329.349 130.412 328.661V325.049H131.504ZM135.676 331.733C135.172 331.733 134.72 331.649 134.32 331.481C133.92 331.305 133.604 331.065 133.372 330.761C133.14 330.449 133.012 330.093 132.988 329.693H134.116C134.148 330.021 134.3 330.289 134.572 330.497C134.852 330.705 135.216 330.809 135.664 330.809C136.08 330.809 136.408 330.717 136.648 330.533C136.888 330.349 137.008 330.117 137.008 329.837C137.008 329.549 136.88 329.337 136.624 329.201C136.368 329.057 135.972 328.917 135.436 328.781C134.948 328.653 134.548 328.525 134.236 328.397C133.932 328.261 133.668 328.065 133.444 327.809C133.228 327.545 133.12 327.201 133.12 326.777C133.12 326.441 133.22 326.133 133.42 325.853C133.62 325.573 133.904 325.353 134.272 325.193C134.64 325.025 135.06 324.941 135.532 324.941C136.26 324.941 136.848 325.125 137.296 325.493C137.744 325.861 137.984 326.365 138.016 327.005H136.924C136.9 326.661 136.76 326.385 136.504 326.177C136.256 325.969 135.92 325.865 135.496 325.865C135.104 325.865 134.792 325.949 134.56 326.117C134.328 326.285 134.212 326.505 134.212 326.777C134.212 326.993 134.28 327.173 134.416 327.317C134.56 327.453 134.736 327.565 134.944 327.653C135.16 327.733 135.456 327.825 135.832 327.929C136.304 328.057 136.688 328.185 136.984 328.313C137.28 328.433 137.532 328.617 137.74 328.865C137.956 329.113 138.068 329.437 138.076 329.837C138.076 330.197 137.976 330.521 137.776 330.809C137.576 331.097 137.292 331.325 136.924 331.493C136.564 331.653 136.148 331.733 135.676 331.733ZM140.949 325.949V329.825C140.949 330.145 141.017 330.373 141.153 330.509C141.289 330.637 141.525 330.701 141.861 330.701H142.665V331.625H141.681C141.073 331.625 140.617 331.485 140.313 331.205C140.009 330.925 139.857 330.465 139.857 329.825V325.949H139.005V325.049H139.857V323.393H140.949V325.049H142.665V325.949H140.949ZM146.856 331.733C146.24 331.733 145.68 331.593 145.176 331.313C144.68 331.033 144.288 330.637 144 330.125C143.72 329.605 143.58 329.005 143.58 328.325C143.58 327.653 143.724 327.061 144.012 326.549C144.308 326.029 144.708 325.633 145.212 325.361C145.716 325.081 146.28 324.941 146.904 324.941C147.528 324.941 148.092 325.081 148.596 325.361C149.1 325.633 149.496 326.025 149.784 326.537C150.08 327.049 150.228 327.645 150.228 328.325C150.228 329.005 150.076 329.605 149.772 330.125C149.476 330.637 149.072 331.033 148.56 331.313C148.048 331.593 147.48 331.733 146.856 331.733ZM146.856 330.773C147.248 330.773 147.616 330.681 147.96 330.497C148.304 330.313 148.58 330.037 148.788 329.669C149.004 329.301 149.112 328.853 149.112 328.325C149.112 327.797 149.008 327.349 148.8 326.981C148.592 326.613 148.32 326.341 147.984 326.165C147.648 325.981 147.284 325.889 146.892 325.889C146.492 325.889 146.124 325.981 145.788 326.165C145.46 326.341 145.196 326.613 144.996 326.981C144.796 327.349 144.696 327.797 144.696 328.325C144.696 328.861 144.792 329.313 144.984 329.681C145.184 330.049 145.448 330.325 145.776 330.509C146.104 330.685 146.464 330.773 146.856 330.773ZM159.572 324.929C160.084 324.929 160.54 325.037 160.94 325.253C161.34 325.461 161.656 325.777 161.888 326.201C162.12 326.625 162.236 327.141 162.236 327.749V331.625H161.156V327.905C161.156 327.249 160.992 326.749 160.664 326.405C160.344 326.053 159.908 325.877 159.356 325.877C158.788 325.877 158.336 326.061 158 326.429C157.664 326.789 157.496 327.313 157.496 328.001V331.625H156.416V327.905C156.416 327.249 156.252 326.749 155.924 326.405C155.604 326.053 155.168 325.877 154.616 325.877C154.048 325.877 153.596 326.061 153.26 326.429C152.924 326.789 152.756 327.313 152.756 328.001V331.625H151.664V325.049H152.756V325.997C152.972 325.653 153.26 325.389 153.62 325.205C153.988 325.021 154.392 324.929 154.832 324.929C155.384 324.929 155.872 325.053 156.296 325.301C156.72 325.549 157.036 325.913 157.244 326.393C157.428 325.929 157.732 325.569 158.156 325.313C158.58 325.057 159.052 324.929 159.572 324.929ZM170.027 328.085C170.027 328.293 170.015 328.513 169.991 328.745H164.735C164.775 329.393 164.995 329.901 165.395 330.269C165.803 330.629 166.295 330.809 166.871 330.809C167.343 330.809 167.735 330.701 168.047 330.485C168.367 330.261 168.591 329.965 168.719 329.597H169.895C169.719 330.229 169.367 330.745 168.839 331.145C168.311 331.537 167.655 331.733 166.871 331.733C166.247 331.733 165.687 331.593 165.191 331.313C164.703 331.033 164.319 330.637 164.039 330.125C163.759 329.605 163.619 329.005 163.619 328.325C163.619 327.645 163.755 327.049 164.027 326.537C164.299 326.025 164.679 325.633 165.167 325.361C165.663 325.081 166.231 324.941 166.871 324.941C167.495 324.941 168.047 325.077 168.527 325.349C169.007 325.621 169.375 325.997 169.631 326.477C169.895 326.949 170.027 327.485 170.027 328.085ZM168.899 327.857C168.899 327.441 168.807 327.085 168.623 326.789C168.439 326.485 168.187 326.257 167.867 326.105C167.555 325.945 167.207 325.865 166.823 325.865C166.271 325.865 165.799 326.041 165.407 326.393C165.023 326.745 164.803 327.233 164.747 327.857H168.899ZM172.561 326.117C172.753 325.741 173.025 325.449 173.377 325.241C173.737 325.033 174.173 324.929 174.685 324.929V326.057H174.397C173.173 326.057 172.561 326.721 172.561 328.049V331.625H171.469V325.049H172.561V326.117ZM183.549 331.625L181.557 328.205H180.237V331.625H179.145V323.261H181.845C182.477 323.261 183.009 323.369 183.441 323.585C183.881 323.801 184.209 324.093 184.425 324.461C184.641 324.829 184.749 325.249 184.749 325.721C184.749 326.297 184.581 326.805 184.245 327.245C183.917 327.685 183.421 327.977 182.757 328.121L184.857 331.625H183.549ZM180.237 327.329H181.845C182.437 327.329 182.881 327.185 183.177 326.897C183.473 326.601 183.621 326.209 183.621 325.721C183.621 325.225 183.473 324.841 183.177 324.569C182.889 324.297 182.445 324.161 181.845 324.161H180.237V327.329ZM192.445 328.085C192.445 328.293 192.433 328.513 192.409 328.745H187.153C187.193 329.393 187.413 329.901 187.813 330.269C188.221 330.629 188.713 330.809 189.289 330.809C189.761 330.809 190.153 330.701 190.465 330.485C190.785 330.261 191.009 329.965 191.137 329.597H192.313C192.137 330.229 191.785 330.745 191.257 331.145C190.729 331.537 190.073 331.733 189.289 331.733C188.665 331.733 188.105 331.593 187.609 331.313C187.121 331.033 186.737 330.637 186.457 330.125C186.177 329.605 186.037 329.005 186.037 328.325C186.037 327.645 186.173 327.049 186.445 326.537C186.717 326.025 187.097 325.633 187.585 325.361C188.081 325.081 188.649 324.941 189.289 324.941C189.913 324.941 190.465 325.077 190.945 325.349C191.425 325.621 191.793 325.997 192.049 326.477C192.313 326.949 192.445 327.485 192.445 328.085ZM191.317 327.857C191.317 327.441 191.225 327.085 191.041 326.789C190.857 326.485 190.605 326.257 190.285 326.105C189.973 325.945 189.625 325.865 189.241 325.865C188.689 325.865 188.217 326.041 187.825 326.393C187.441 326.745 187.221 327.233 187.165 327.857H191.317ZM196.335 330.617L198.375 325.049H199.539L196.959 331.625H195.687L193.107 325.049H194.283L196.335 330.617ZM201.177 323.981C200.969 323.981 200.793 323.909 200.649 323.765C200.505 323.621 200.433 323.445 200.433 323.237C200.433 323.029 200.505 322.853 200.649 322.709C200.793 322.565 200.969 322.493 201.177 322.493C201.377 322.493 201.545 322.565 201.681 322.709C201.825 322.853 201.897 323.029 201.897 323.237C201.897 323.445 201.825 323.621 201.681 323.765C201.545 323.909 201.377 323.981 201.177 323.981ZM201.705 325.049V331.625H200.613V325.049H201.705ZM209.567 328.085C209.567 328.293 209.555 328.513 209.531 328.745H204.275C204.315 329.393 204.535 329.901 204.935 330.269C205.343 330.629 205.835 330.809 206.411 330.809C206.883 330.809 207.275 330.701 207.587 330.485C207.907 330.261 208.131 329.965 208.259 329.597H209.435C209.259 330.229 208.907 330.745 208.379 331.145C207.851 331.537 207.195 331.733 206.411 331.733C205.787 331.733 205.227 331.593 204.731 331.313C204.243 331.033 203.859 330.637 203.579 330.125C203.299 329.605 203.159 329.005 203.159 328.325C203.159 327.645 203.295 327.049 203.567 326.537C203.839 326.025 204.219 325.633 204.707 325.361C205.203 325.081 205.771 324.941 206.411 324.941C207.035 324.941 207.587 325.077 208.067 325.349C208.547 325.621 208.915 325.997 209.171 326.477C209.435 326.949 209.567 327.485 209.567 328.085ZM208.439 327.857C208.439 327.441 208.347 327.085 208.163 326.789C207.979 326.485 207.727 326.257 207.407 326.105C207.095 325.945 206.747 325.865 206.363 325.865C205.811 325.865 205.339 326.041 204.947 326.393C204.563 326.745 204.343 327.233 204.287 327.857H208.439ZM219.768 325.049L217.716 331.625H216.588L215.004 326.405L213.42 331.625H212.292L210.228 325.049H211.344L212.856 330.569L214.488 325.049H215.604L217.2 330.581L218.688 325.049H219.768ZM223.18 331.733C222.676 331.733 222.224 331.649 221.824 331.481C221.424 331.305 221.108 331.065 220.876 330.761C220.644 330.449 220.516 330.093 220.492 329.693H221.62C221.652 330.021 221.804 330.289 222.076 330.497C222.356 330.705 222.72 330.809 223.168 330.809C223.584 330.809 223.912 330.717 224.152 330.533C224.392 330.349 224.512 330.117 224.512 329.837C224.512 329.549 224.384 329.337 224.128 329.201C223.872 329.057 223.476 328.917 222.94 328.781C222.452 328.653 222.052 328.525 221.74 328.397C221.436 328.261 221.172 328.065 220.948 327.809C220.732 327.545 220.624 327.201 220.624 326.777C220.624 326.441 220.724 326.133 220.924 325.853C221.124 325.573 221.408 325.353 221.776 325.193C222.144 325.025 222.564 324.941 223.036 324.941C223.764 324.941 224.352 325.125 224.8 325.493C225.248 325.861 225.488 326.365 225.52 327.005H224.428C224.404 326.661 224.264 326.385 224.008 326.177C223.76 325.969 223.424 325.865 223 325.865C222.608 325.865 222.296 325.949 222.064 326.117C221.832 326.285 221.716 326.505 221.716 326.777C221.716 326.993 221.784 327.173 221.92 327.317C222.064 327.453 222.24 327.565 222.448 327.653C222.664 327.733 222.96 327.825 223.336 327.929C223.808 328.057 224.192 328.185 224.488 328.313C224.784 328.433 225.036 328.617 225.244 328.865C225.46 329.113 225.572 329.437 225.58 329.837C225.58 330.197 225.48 330.521 225.28 330.809C225.08 331.097 224.796 331.325 224.428 331.493C224.068 331.653 223.652 331.733 223.18 331.733Z" fill="#666666"/>
<path d="M110.968 311.618C111.992 310.733 112.798 310.008 113.384 309.442C113.982 308.866 114.478 308.269 114.872 307.65C115.267 307.032 115.464 306.413 115.464 305.794C115.464 305.154 115.31 304.653 115 304.29C114.702 303.928 114.227 303.746 113.576 303.746C112.947 303.746 112.456 303.949 112.104 304.354C111.763 304.749 111.582 305.282 111.56 305.954H109.8C109.832 304.738 110.195 303.81 110.888 303.17C111.592 302.52 112.483 302.194 113.56 302.194C114.723 302.194 115.63 302.514 116.28 303.154C116.942 303.794 117.272 304.648 117.272 305.714C117.272 306.482 117.075 307.224 116.68 307.938C116.296 308.642 115.832 309.277 115.288 309.842C114.755 310.397 114.072 311.042 113.24 311.778L112.52 312.418H117.592V313.938H109.816V312.61L110.968 311.618ZM126.587 303.842L122.139 314.098H120.299L124.795 304.034H118.875V302.482H126.587V303.842ZM134.516 314.098L130.212 309.122V314.098H128.388V302.978H130.212V308.05L134.532 302.978H136.82L131.988 308.546L136.9 314.098H134.516Z" fill="#444444"/>
<path fill-rule="evenodd" clip-rule="evenodd" d="M92 319C92 324.523 86.1799 329 79 329C76.92 329 74.9544 328.624 73.2124 327.956C72.7522 327.773 72.221 327.726 71.7187 327.823L68.8249 328.419C68.5385 328.478 68.237 328.478 67.9507 328.418C67.6644 328.359 67.4034 328.243 67.1938 328.082C66.9843 327.921 66.8336 327.72 66.7568 327.499C66.6801 327.279 66.68 327.047 66.7566 326.827L67.5301 324.601C67.6559 324.215 67.594 323.807 67.3559 323.453C66.461 322.07 65.9968 320.545 66 319C66 313.477 71.8201 309 79 309C86.1799 309 92 313.477 92 319ZM73.15 318.108C73.15 319.477 74.8647 320.913 76.4377 321.942C77.5076 322.642 78.0432 322.993 79 322.993C79.9568 322.993 80.4924 322.643 81.5623 321.942C83.1353 320.912 84.85 319.477 84.85 318.108C84.85 315.431 81.6325 314.432 79 316.5C76.3675 314.432 73.15 315.431 73.15 318.108Z" fill="#E01D5E"/>
<g filter="url(#filter5_d_671_551)">
<g filter="url(#filter6_d_671_551)">
<rect x="623" y="135.276" width="57.6087" height="58.2303" rx="28.8043" fill="white"/>
</g>
<g clip-path="url(#clip2_671_551)">
<path d="M659.55 151.756H645.502C642.079 151.756 639.305 154.408 639.305 157.679V171.103C639.305 174.374 642.079 177.026 645.502 177.026H659.55C662.973 177.026 665.748 174.374 665.748 171.103V157.679C665.748 154.408 662.973 151.756 659.55 151.756Z" fill="url(#paint0_radial_671_551)"/>
<path d="M659.55 151.756H645.502C642.079 151.756 639.305 154.408 639.305 157.679V171.103C639.305 174.374 642.079 177.026 645.502 177.026H659.55C662.973 177.026 665.748 174.374 665.748 171.103V157.679C665.748 154.408 662.973 151.756 659.55 151.756Z" fill="url(#paint1_radial_671_551)"/>
<path d="M652.528 154.52C649.722 154.52 649.37 154.532 648.268 154.58C647.169 154.628 646.418 154.794 645.761 155.038C645.082 155.29 644.506 155.628 643.932 156.176C643.357 156.725 643.004 157.276 642.739 157.925C642.483 158.553 642.309 159.27 642.259 160.321C642.21 161.374 642.197 161.71 642.197 164.391C642.197 167.072 642.21 167.407 642.26 168.46C642.31 169.511 642.484 170.228 642.74 170.856C643.004 171.505 643.357 172.056 643.931 172.605C644.505 173.154 645.081 173.492 645.76 173.744C646.417 173.988 647.168 174.154 648.268 174.203C649.369 174.25 649.721 174.262 652.526 174.262C655.332 174.262 655.683 174.25 656.785 174.203C657.884 174.154 658.636 173.988 659.293 173.744C659.972 173.492 660.548 173.154 661.122 172.605C661.696 172.056 662.049 171.505 662.314 170.856C662.568 170.228 662.742 169.511 662.794 168.46C662.843 167.408 662.856 167.072 662.856 164.391C662.856 161.71 662.843 161.374 662.794 160.321C662.742 159.27 662.568 158.553 662.314 157.925C662.049 157.276 661.696 156.725 661.122 156.176C660.547 155.627 659.972 155.29 659.292 155.038C658.634 154.794 657.883 154.628 656.783 154.58C655.681 154.532 655.331 154.52 652.524 154.52H652.528ZM651.601 156.299C651.876 156.298 652.183 156.299 652.528 156.299C655.286 156.299 655.613 156.308 656.702 156.356C657.709 156.4 658.255 156.56 658.62 156.696C659.102 156.874 659.445 157.088 659.807 157.434C660.168 157.779 660.392 158.108 660.58 158.569C660.721 158.917 660.889 159.439 660.935 160.401C660.985 161.442 660.995 161.754 660.995 164.389C660.995 167.023 660.985 167.336 660.935 168.376C660.889 169.339 660.721 169.861 660.58 170.209C660.392 170.669 660.168 170.997 659.807 171.343C659.445 171.688 659.102 171.902 658.62 172.081C658.256 172.217 657.709 172.377 656.702 172.421C655.613 172.468 655.286 172.479 652.528 172.479C649.769 172.479 649.443 172.468 648.354 172.421C647.347 172.377 646.8 172.216 646.436 172.081C645.954 171.902 645.609 171.688 645.248 171.342C644.886 170.997 644.662 170.669 644.475 170.208C644.333 169.86 644.165 169.338 644.119 168.376C644.069 167.335 644.06 167.022 644.06 164.386C644.06 161.75 644.069 161.439 644.119 160.399C644.165 159.436 644.333 158.914 644.475 158.566C644.662 158.105 644.886 157.776 645.248 157.431C645.609 157.085 645.954 156.872 646.436 156.692C646.8 156.557 647.347 156.396 648.354 156.352C649.307 156.311 649.676 156.298 651.601 156.296V156.299ZM658.041 157.938C657.357 157.938 656.802 158.468 656.802 159.122C656.802 159.776 657.357 160.306 658.041 160.306C658.726 160.306 659.281 159.776 659.281 159.122C659.281 158.468 658.726 157.937 658.041 157.937V157.938ZM652.528 159.322C649.598 159.322 647.223 161.592 647.223 164.391C647.223 167.191 649.598 169.459 652.528 169.459C655.457 169.459 657.831 167.191 657.831 164.391C657.831 161.592 655.457 159.322 652.527 159.322H652.528ZM652.528 161.101C654.429 161.101 655.971 162.574 655.971 164.391C655.971 166.208 654.429 167.682 652.528 167.682C650.626 167.682 649.085 166.208 649.085 164.391C649.085 162.574 650.626 161.101 652.528 161.101Z" fill="white"/>
</g>
</g>
<defs>
<filter id="filter0_d_671_551" x="558.956" y="491.25" width="146.044" height="49.75" filterUnits="userSpaceOnUse" color-interpolation-filters="sRGB">
<feFlood flood-opacity="0" result="BackgroundImageFix"/>
<feColorMatrix in="SourceAlpha" type="matrix" values="0 0 0 0 0 0 0 0 0 0 0 0 0 0 0 0 0 0 127 0" result="hardAlpha"/>
<feOffset dx="3" dy="4"/>
<feGaussianBlur stdDeviation="2"/>
<feComposite in2="hardAlpha" operator="out"/>
<feColorMatrix type="matrix" values="0 0 0 0 0 0 0 0 0 0 0 0 0 0 0 0 0 0 0.25 0"/>
<feBlend mode="normal" in2="BackgroundImageFix" result="effect1_dropShadow_671_551"/>
<feBlend mode="normal" in="SourceGraphic" in2="effect1_dropShadow_671_551" result="shape"/>
</filter>
<filter id="filter1_d_671_551" x="511.956" y="459.25" width="218.044" height="121.75" filterUnits="userSpaceOnUse" color-interpolation-filters="sRGB">
<feFlood flood-opacity="0" result="BackgroundImageFix"/>
<feColorMatrix in="SourceAlpha" type="matrix" values="0 0 0 0 0 0 0 0 0 0 0 0 0 0 0 0 0 0 127 0" result="hardAlpha"/>
<feOffset dx="-8" dy="8"/>
<feGaussianBlur stdDeviation="20"/>
<feComposite in2="hardAlpha" operator="out"/>
<feColorMatrix type="matrix" values="0 0 0 0 0 0 0 0 0 0 0 0 0 0 0 0 0 0 0.05 0"/>
<feBlend mode="normal" in2="BackgroundImageFix" result="effect1_dropShadow_671_551"/>
<feBlend mode="normal" in="SourceGraphic" in2="effect1_dropShadow_671_551" result="shape"/>
</filter>
<filter id="filter2_d_671_551" x="154.608" y="32" width="68.8691" height="67.3291" filterUnits="userSpaceOnUse" color-interpolation-filters="sRGB">
<feFlood flood-opacity="0" result="BackgroundImageFix"/>
<feColorMatrix in="SourceAlpha" type="matrix" values="0 0 0 0 0 0 0 0 0 0 0 0 0 0 0 0 0 0 127 0" result="hardAlpha"/>
<feOffset dx="3" dy="4"/>
<feGaussianBlur stdDeviation="2"/>
<feComposite in2="hardAlpha" operator="out"/>
<feColorMatrix type="matrix" values="0 0 0 0 0 0 0 0 0 0 0 0 0 0 0 0 0 0 0.25 0"/>
<feBlend mode="normal" in2="BackgroundImageFix" result="effect1_dropShadow_671_551"/>
<feBlend mode="normal" in="SourceGraphic" in2="effect1_dropShadow_671_551" result="shape"/>
</filter>
<filter id="filter3_d_671_551" x="107.608" y="0" width="140.869" height="139.329" filterUnits="userSpaceOnUse" color-interpolation-filters="sRGB">
<feFlood flood-opacity="0" result="BackgroundImageFix"/>
<feColorMatrix in="SourceAlpha" type="matrix" values="0 0 0 0 0 0 0 0 0 0 0 0 0 0 0 0 0 0 127 0" result="hardAlpha"/>
<feOffset dx="-8" dy="8"/>
<feGaussianBlur stdDeviation="20"/>
<feComposite in2="hardAlpha" operator="out"/>
<feColorMatrix type="matrix" values="0 0 0 0 0 0 0 0 0 0 0 0 0 0 0 0 0 0 0.05 0"/>
<feBlend mode="normal" in2="BackgroundImageFix" result="effect1_dropShadow_671_551"/>
<feBlend mode="normal" in="SourceGraphic" in2="effect1_dropShadow_671_551" result="shape"/>
</filter>
<filter id="filter4_d_671_551" x="0" y="263.684" width="282.174" height="126.145" filterUnits="userSpaceOnUse" color-interpolation-filters="sRGB">
<feFlood flood-opacity="0" result="BackgroundImageFix"/>
<feColorMatrix in="SourceAlpha" type="matrix" values="0 0 0 0 0 0 0 0 0 0 0 0 0 0 0 0 0 0 127 0" result="hardAlpha"/>
<feOffset dx="-8" dy="8"/>
<feGaussianBlur stdDeviation="20"/>
<feComposite in2="hardAlpha" operator="out"/>
<feColorMatrix type="matrix" values="0 0 0 0 0 0 0 0 0 0 0 0 0 0 0 0 0 0 0.05 0"/>
<feBlend mode="normal" in2="BackgroundImageFix" result="effect1_dropShadow_671_551"/>
<feBlend mode="normal" in="SourceGraphic" in2="effect1_dropShadow_671_551" result="shape"/>
</filter>
<filter id="filter5_d_671_551" x="623" y="135.276" width="65.6084" height="66.2302" filterUnits="userSpaceOnUse" color-interpolation-filters="sRGB">
<feFlood flood-opacity="0" result="BackgroundImageFix"/>
<feColorMatrix in="SourceAlpha" type="matrix" values="0 0 0 0 0 0 0 0 0 0 0 0 0 0 0 0 0 0 127 0" result="hardAlpha"/>
<feOffset dx="4" dy="4"/>
<feGaussianBlur stdDeviation="2"/>
<feComposite in2="hardAlpha" operator="out"/>
<feColorMatrix type="matrix" values="0 0 0 0 0 0 0 0 0 0 0 0 0 0 0 0 0 0 0.25 0"/>
<feBlend mode="normal" in2="BackgroundImageFix" result="effect1_dropShadow_671_551"/>
<feBlend mode="normal" in="SourceGraphic" in2="effect1_dropShadow_671_551" result="shape"/>
</filter>
<filter id="filter6_d_671_551" x="586" y="103.276" width="137.608" height="138.23" filterUnits="userSpaceOnUse" color-interpolation-filters="sRGB">
<feFlood flood-opacity="0" result="BackgroundImageFix"/>
<feColorMatrix in="SourceAlpha" type="matrix" values="0 0 0 0 0 0 0 0 0 0 0 0 0 0 0 0 0 0 127 0" result="hardAlpha"/>
<feOffset dx="3" dy="8"/>
<feGaussianBlur stdDeviation="20"/>
<feComposite in2="hardAlpha" operator="out"/>
<feColorMatrix type="matrix" values="0 0 0 0 0 0 0 0 0 0 0 0 0 0 0 0 0 0 0.05 0"/>
<feBlend mode="normal" in2="BackgroundImageFix" result="effect1_dropShadow_671_551"/>
<feBlend mode="normal" in="SourceGraphic" in2="effect1_dropShadow_671_551" result="shape"/>
</filter>
<radialGradient id="paint0_radial_671_551" cx="0" cy="0" r="1" gradientUnits="userSpaceOnUse" gradientTransform="translate(646.329 178.972) rotate(-90) scale(25.0442 24.3749)">
<stop stop-color="#FFDD55"/>
<stop offset="0.1" stop-color="#FFDD55"/>
<stop offset="0.5" stop-color="#FF543E"/>
<stop offset="1" stop-color="#C837AB"/>
</radialGradient>
<radialGradient id="paint1_radial_671_551" cx="0" cy="0" r="1" gradientUnits="userSpaceOnUse" gradientTransform="translate(634.875 153.577) rotate(78.1698) scale(11.2154 48.2007)">
<stop stop-color="#3771C8"/>
<stop offset="0.128" stop-color="#3771C8"/>
<stop offset="1" stop-color="#6600FF" stop-opacity="0"/>
</radialGradient>
<clipPath id="clip0_671_551">
<rect width="106.522" height="25.2697" fill="white" transform="translate(574.087 500.04)"/>
</clipPath>
<clipPath id="clip1_671_551">
<rect width="32.6087" height="35.1579" fill="white" transform="translate(169.739 44.0854)"/>
</clipPath>
<clipPath id="clip2_671_551">
<rect width="30.221" height="28.5658" fill="white" transform="translate(637.166 151.756)"/>
</clipPath>
</defs>
</svg>
