<svg width="56" height="50" viewBox="0 0 56 50" fill="none" xmlns="http://www.w3.org/2000/svg">
<path d="M21.5673 35.6692C22.8302 36.2063 23.9669 36.8654 24.9772 37.6467C25.9876 38.4279 26.8619 39.3068 27.6003 40.2834C28.3386 41.2599 28.8924 42.3015 29.2615 43.4083C29.6307 44.5151 29.825 45.6706 29.8444 46.875H26.1139C26.1139 45.5893 25.8224 44.3767 25.2395 43.2374C24.6566 42.0981 23.86 41.1053 22.8496 40.2589C21.8393 39.4126 20.6443 38.7372 19.2648 38.2326C17.8853 37.7281 16.4378 37.4839 14.9222 37.5002C13.3678 37.5002 11.9203 37.7443 10.5796 38.2326C9.23895 38.7209 8.05372 39.3882 7.02393 40.2345C5.99415 41.0809 5.1878 42.0818 4.6049 43.2374C4.022 44.393 3.73055 45.6055 3.73055 46.875H0C0 45.6869 0.1943 44.5395 0.582899 43.4327C0.971498 42.326 1.52525 41.2843 2.24416 40.3078C2.96307 39.3312 3.8277 38.4523 4.83806 37.6711C5.84842 36.8898 6.99479 36.2225 8.27717 35.6692C6.83935 34.774 5.72213 33.6672 4.9255 32.3489C4.12887 31.0306 3.73055 29.6227 3.73055 28.1253C3.73055 26.8395 4.022 25.627 4.6049 24.4877C5.1878 23.3484 5.98443 22.3556 6.99479 21.5092C8.00515 20.6629 9.19037 19.9874 10.5505 19.4829C11.9106 18.9783 13.3678 18.7342 14.9222 18.7505C16.7098 18.7505 18.3905 19.0841 19.9643 19.7514C21.5381 20.4187 22.8594 21.3546 23.928 22.559C24.6663 21.3383 25.6087 20.2479 26.7551 19.2876C27.9014 18.3273 29.2032 17.5379 30.6605 16.9195C29.2227 16.0243 28.1054 14.9175 27.3088 13.5992C26.5122 12.2808 26.1139 10.873 26.1139 9.37562C26.1139 8.08983 26.4053 6.87729 26.9882 5.73798C27.5711 4.59867 28.3678 3.60585 29.3781 2.75951C30.3885 1.91317 31.5737 1.23772 32.9338 0.733174C34.2939 0.228624 35.7511 -0.0155129 37.3055 0.000762928C38.8405 0.000762928 40.288 0.2449 41.6481 0.733174C43.0082 1.22145 44.1935 1.88875 45.2038 2.7351C46.2142 3.58144 47.0205 4.5824 47.6229 5.73798C48.2252 6.89356 48.5166 8.10611 48.4972 9.37562C48.4972 10.873 48.0989 12.2808 47.3023 13.5992C46.5056 14.9175 45.3884 16.0243 43.9506 16.9195C45.2135 17.4566 46.3502 18.1157 47.3605 18.897C48.3709 19.6782 49.2453 20.5571 49.9836 21.5336C50.7219 22.5102 51.2757 23.5518 51.6449 24.6586C52.014 25.7653 52.2083 26.9209 52.2278 28.1253H48.4972C48.4972 26.8395 48.2058 25.627 47.6229 24.4877C47.04 23.3484 46.2433 22.3556 45.233 21.5092C44.2226 20.6629 43.0277 19.9874 41.6481 19.4829C40.2686 18.9783 38.8211 18.7342 37.3055 18.7505C35.7511 18.7505 34.3036 18.9946 32.9629 19.4829C31.6223 19.9712 30.437 20.6385 29.4073 21.4848C28.3775 22.3312 27.5711 23.3321 26.9882 24.4877C26.4053 25.6433 26.1139 26.8558 26.1139 28.1253C26.1139 29.6227 25.7156 31.0306 24.9189 32.3489C24.1223 33.6672 23.0051 34.774 21.5673 35.6692ZM29.8444 9.37562C29.8444 10.2382 30.0387 11.0439 30.4273 11.7926C30.8159 12.5413 31.3503 13.2086 32.0303 13.7945C32.7104 14.3804 33.4973 14.828 34.391 15.1373C35.2848 15.4465 36.2563 15.6092 37.3055 15.6255C38.3353 15.6255 39.2971 15.4628 40.1909 15.1373C41.0847 14.8117 41.8813 14.3642 42.5808 13.7945C43.2803 13.2248 43.8146 12.5657 44.1837 11.817C44.5529 11.0683 44.7472 10.2545 44.7666 9.37562C44.7666 8.513 44.5723 7.70735 44.1837 6.95866C43.7951 6.20998 43.2608 5.54267 42.5808 4.95674C41.9007 4.37081 41.1138 3.92323 40.22 3.61399C39.3263 3.30475 38.3548 3.14199 37.3055 3.12572C36.2757 3.12572 35.314 3.28847 34.4202 3.61399C33.5264 3.9395 32.7298 4.38709 32.0303 4.95674C31.3308 5.52639 30.7965 6.18556 30.4273 6.93425C30.0582 7.68294 29.8639 8.49673 29.8444 9.37562ZM7.46111 28.1253C7.46111 28.988 7.65541 29.7936 8.04401 30.5423C8.43261 31.291 8.96693 31.9583 9.64698 32.5442C10.327 33.1301 11.1139 33.5777 12.0077 33.887C12.9015 34.1962 13.873 34.359 14.9222 34.3752C15.952 34.3752 16.9138 34.2125 17.8076 33.887C18.7013 33.5614 19.498 33.1139 20.1975 32.5442C20.8969 31.9746 21.4313 31.3154 21.8004 30.5667C22.1696 29.818 22.3639 29.0042 22.3833 28.1253C22.3833 27.2627 22.189 26.4571 21.8004 25.7084C21.4118 24.9597 20.8775 24.2924 20.1975 23.7065C19.5174 23.1205 18.7305 22.6729 17.8367 22.3637C16.9429 22.0545 15.9714 21.8917 14.9222 21.8754C13.8924 21.8754 12.9306 22.0382 12.0369 22.3637C11.1431 22.6892 10.3465 23.1368 9.64698 23.7065C8.9475 24.2761 8.41318 24.9353 8.04401 25.684C7.67484 26.4327 7.48054 27.2464 7.46111 28.1253ZM51.2951 50L42.9014 44.5069L34.5076 50L37.8884 41.2111L29.8444 35.9377H39.8994L42.9014 28.1253L45.9033 35.9377H55.9583L47.9143 41.2111L51.2951 50Z" fill="black"/>
<path d="M21.5673 35.6692C22.8302 36.2063 23.9669 36.8654 24.9772 37.6467C25.9876 38.4279 26.8619 39.3068 27.6003 40.2834C28.3386 41.2599 28.8924 42.3015 29.2615 43.4083C29.6307 44.5151 29.825 45.6706 29.8444 46.875H26.1139C26.1139 45.5893 25.8224 44.3767 25.2395 43.2374C24.6566 42.0981 23.86 41.1053 22.8496 40.2589C21.8393 39.4126 20.6443 38.7372 19.2648 38.2326C17.8853 37.7281 16.4378 37.4839 14.9222 37.5002C13.3678 37.5002 11.9203 37.7443 10.5796 38.2326C9.23895 38.7209 8.05372 39.3882 7.02393 40.2345C5.99415 41.0809 5.1878 42.0818 4.6049 43.2374C4.022 44.393 3.73055 45.6055 3.73055 46.875H0C0 45.6869 0.1943 44.5395 0.582899 43.4327C0.971498 42.326 1.52525 41.2843 2.24416 40.3078C2.96307 39.3312 3.8277 38.4523 4.83806 37.6711C5.84842 36.8898 6.99479 36.2225 8.27717 35.6692C6.83935 34.774 5.72213 33.6672 4.9255 32.3489C4.12887 31.0306 3.73055 29.6227 3.73055 28.1253C3.73055 26.8395 4.022 25.627 4.6049 24.4877C5.1878 23.3484 5.98443 22.3556 6.99479 21.5092C8.00515 20.6629 9.19037 19.9874 10.5505 19.4829C11.9106 18.9783 13.3678 18.7342 14.9222 18.7505C16.7098 18.7505 18.3905 19.0841 19.9643 19.7514C21.5381 20.4187 22.8594 21.3546 23.928 22.559C24.6663 21.3383 25.6087 20.2479 26.7551 19.2876C27.9014 18.3273 29.2032 17.5379 30.6605 16.9195C29.2227 16.0243 28.1054 14.9175 27.3088 13.5992C26.5122 12.2808 26.1139 10.873 26.1139 9.37562C26.1139 8.08983 26.4053 6.87729 26.9882 5.73798C27.5711 4.59867 28.3678 3.60585 29.3781 2.75951C30.3885 1.91317 31.5737 1.23772 32.9338 0.733174C34.2939 0.228624 35.7511 -0.0155129 37.3055 0.000762928C38.8405 0.000762928 40.288 0.2449 41.6481 0.733174C43.0082 1.22145 44.1935 1.88875 45.2038 2.7351C46.2142 3.58144 47.0205 4.5824 47.6229 5.73798C48.2252 6.89356 48.5166 8.10611 48.4972 9.37562C48.4972 10.873 48.0989 12.2808 47.3023 13.5992C46.5056 14.9175 45.3884 16.0243 43.9506 16.9195C45.2135 17.4566 46.3502 18.1157 47.3605 18.897C48.3709 19.6782 49.2453 20.5571 49.9836 21.5336C50.7219 22.5102 51.2757 23.5518 51.6449 24.6586C52.014 25.7653 52.2083 26.9209 52.2278 28.1253H48.4972C48.4972 26.8395 48.2058 25.627 47.6229 24.4877C47.04 23.3484 46.2433 22.3556 45.233 21.5092C44.2226 20.6629 43.0277 19.9874 41.6481 19.4829C40.2686 18.9783 38.8211 18.7342 37.3055 18.7505C35.7511 18.7505 34.3036 18.9946 32.9629 19.4829C31.6223 19.9712 30.437 20.6385 29.4073 21.4848C28.3775 22.3312 27.5711 23.3321 26.9882 24.4877C26.4053 25.6433 26.1139 26.8558 26.1139 28.1253C26.1139 29.6227 25.7156 31.0306 24.9189 32.3489C24.1223 33.6672 23.0051 34.774 21.5673 35.6692ZM29.8444 9.37562C29.8444 10.2382 30.0387 11.0439 30.4273 11.7926C30.8159 12.5413 31.3503 13.2086 32.0303 13.7945C32.7104 14.3804 33.4973 14.828 34.391 15.1373C35.2848 15.4465 36.2563 15.6092 37.3055 15.6255C38.3353 15.6255 39.2971 15.4628 40.1909 15.1373C41.0847 14.8117 41.8813 14.3642 42.5808 13.7945C43.2803 13.2248 43.8146 12.5657 44.1837 11.817C44.5529 11.0683 44.7472 10.2545 44.7666 9.37562C44.7666 8.513 44.5723 7.70735 44.1837 6.95866C43.7951 6.20998 43.2608 5.54267 42.5808 4.95674C41.9007 4.37081 41.1138 3.92323 40.22 3.61399C39.3263 3.30475 38.3548 3.14199 37.3055 3.12572C36.2757 3.12572 35.314 3.28847 34.4202 3.61399C33.5264 3.9395 32.7298 4.38709 32.0303 4.95674C31.3308 5.52639 30.7965 6.18556 30.4273 6.93425C30.0582 7.68294 29.8639 8.49673 29.8444 9.37562ZM7.46111 28.1253C7.46111 28.988 7.65541 29.7936 8.04401 30.5423C8.43261 31.291 8.96693 31.9583 9.64698 32.5442C10.327 33.1301 11.1139 33.5777 12.0077 33.887C12.9015 34.1962 13.873 34.359 14.9222 34.3752C15.952 34.3752 16.9138 34.2125 17.8076 33.887C18.7013 33.5614 19.498 33.1139 20.1975 32.5442C20.8969 31.9746 21.4313 31.3154 21.8004 30.5667C22.1696 29.818 22.3639 29.0042 22.3833 28.1253C22.3833 27.2627 22.189 26.4571 21.8004 25.7084C21.4118 24.9597 20.8775 24.2924 20.1975 23.7065C19.5174 23.1205 18.7305 22.6729 17.8367 22.3637C16.9429 22.0545 15.9714 21.8917 14.9222 21.8754C13.8924 21.8754 12.9306 22.0382 12.0369 22.3637C11.1431 22.6892 10.3465 23.1368 9.64698 23.7065C8.9475 24.2761 8.41318 24.9353 8.04401 25.684C7.67484 26.4327 7.48054 27.2464 7.46111 28.1253ZM51.2951 50L42.9014 44.5069L34.5076 50L37.8884 41.2111L29.8444 35.9377H39.8994L42.9014 28.1253L45.9033 35.9377H55.9583L47.9143 41.2111L51.2951 50Z" fill="#3F48CC"/>
</svg>
