<svg width="19" height="19" viewBox="0 0 19 19" fill="none" xmlns="http://www.w3.org/2000/svg">
<g id="Vector">
<path d="M7.32292 13.5543C7.75174 13.7584 8.13767 14.0089 8.48073 14.3057C8.82378 14.6026 9.12066 14.9366 9.37135 15.3077C9.62205 15.6788 9.81007 16.0746 9.93542 16.4952C10.0608 16.9157 10.1267 17.3548 10.1333 17.8125H8.86667C8.86667 17.3239 8.76771 16.8632 8.56979 16.4302C8.37187 15.9973 8.10139 15.62 7.75833 15.2984C7.41528 14.9768 7.00955 14.7201 6.54115 14.5284C6.07274 14.3367 5.58125 14.2439 5.06667 14.2501C4.53889 14.2501 4.0474 14.3428 3.59219 14.5284C3.13698 14.7139 2.73455 14.9675 2.3849 15.2891C2.03524 15.6107 1.76146 15.9911 1.56354 16.4302C1.36562 16.8693 1.26667 17.3301 1.26667 17.8125H0C0 17.361 0.0659722 16.925 0.197917 16.5044C0.329861 16.0839 0.517882 15.688 0.761979 15.317C1.00608 14.9459 1.29965 14.6119 1.64271 14.315C1.98576 14.0181 2.375 13.7646 2.81042 13.5543C2.32222 13.2141 1.94288 12.7936 1.6724 12.2926C1.40191 11.7916 1.26667 11.2566 1.26667 10.6876C1.26667 10.199 1.36562 9.73826 1.56354 9.30532C1.76146 8.87239 2.03194 8.49511 2.375 8.1735C2.71806 7.8519 3.12049 7.59523 3.58229 7.4035C4.0441 7.21177 4.53889 7.119 5.06667 7.12518C5.67361 7.12518 6.24427 7.25197 6.77865 7.50555C7.31302 7.75912 7.76163 8.11475 8.12448 8.57242C8.37517 8.10856 8.69514 7.69418 9.08437 7.32928C9.47361 6.96438 9.91562 6.66441 10.4104 6.42939C9.92222 6.08923 9.54288 5.66866 9.2724 5.16769C9.00191 4.66672 8.86667 4.13174 8.86667 3.56274C8.86667 3.07414 8.96562 2.61337 9.16354 2.18043C9.36146 1.7475 9.63194 1.37022 9.975 1.04861C10.3181 0.727004 10.7205 0.470335 11.1823 0.278606C11.6441 0.0868771 12.1389 -0.00589489 12.6667 0.000289913C13.1878 0.000289913 13.6793 0.0930619 14.1411 0.278606C14.603 0.46415 15.0054 0.717727 15.3484 1.03934C15.6915 1.36095 15.9653 1.74131 16.1698 2.18043C16.3743 2.61955 16.4733 3.08032 16.4667 3.56274C16.4667 4.13174 16.3314 4.66672 16.0609 5.16769C15.7905 5.66866 15.4111 6.08923 14.9229 6.42939C15.3517 6.63349 15.7377 6.88397 16.0807 7.18084C16.4238 7.47771 16.7207 7.81169 16.9714 8.18278C17.222 8.55387 17.4101 8.9497 17.5354 9.37026C17.6608 9.79083 17.7267 10.23 17.7333 10.6876H16.4667C16.4667 10.199 16.3677 9.73826 16.1698 9.30532C15.9719 8.87239 15.7014 8.49511 15.3583 8.1735C15.0153 7.8519 14.6095 7.59523 14.1411 7.4035C13.6727 7.21177 13.1812 7.119 12.6667 7.12518C12.1389 7.12518 11.6474 7.21795 11.1922 7.4035C10.737 7.58904 10.3345 7.84262 9.9849 8.16423C9.63524 8.48584 9.36146 8.8662 9.16354 9.30532C8.96562 9.74444 8.86667 10.2052 8.86667 10.6876C8.86667 11.2566 8.73142 11.7916 8.46094 12.2926C8.19045 12.7936 7.81111 13.2141 7.32292 13.5543ZM10.1333 3.56274C10.1333 3.89053 10.1993 4.19668 10.3312 4.48118C10.4632 4.76568 10.6446 5.01926 10.8755 5.24191C11.1064 5.46456 11.3736 5.63464 11.6771 5.75216C11.9806 5.86967 12.3104 5.93151 12.6667 5.9377C13.0163 5.9377 13.3429 5.87585 13.6464 5.75216C13.9498 5.62846 14.2203 5.45838 14.4578 5.24191C14.6953 5.02544 14.8767 4.77496 15.0021 4.49046C15.1274 4.20595 15.1934 3.89671 15.2 3.56274C15.2 3.23494 15.134 2.92879 15.0021 2.64429C14.8701 2.35979 14.6887 2.10621 14.4578 1.88356C14.2269 1.66091 13.9597 1.49083 13.6562 1.37332C13.3528 1.2558 13.0229 1.19396 12.6667 1.18777C12.317 1.18777 11.9905 1.24962 11.687 1.37332C11.3835 1.49701 11.113 1.66709 10.8755 1.88356C10.638 2.10003 10.4566 2.35051 10.3312 2.63502C10.2059 2.91952 10.1399 3.22876 10.1333 3.56274ZM2.53333 10.6876C2.53333 11.0154 2.59931 11.3216 2.73125 11.6061C2.86319 11.8906 3.04462 12.1441 3.27552 12.3668C3.50642 12.5895 3.77361 12.7595 4.07708 12.877C4.38056 12.9946 4.71042 13.0564 5.06667 13.0626C5.41632 13.0626 5.74288 13.0007 6.04635 12.877C6.34983 12.7533 6.62031 12.5833 6.85781 12.3668C7.09531 12.1503 7.27674 11.8998 7.40208 11.6153C7.52743 11.3308 7.5934 11.0216 7.6 10.6876C7.6 10.3598 7.53403 10.0537 7.40208 9.76918C7.27014 9.48468 7.08872 9.23111 6.85781 9.00845C6.62691 8.7858 6.35972 8.61572 6.05625 8.49821C5.75278 8.3807 5.42292 8.31885 5.06667 8.31266C4.71701 8.31266 4.39045 8.37451 4.08698 8.49821C3.78351 8.6219 3.51302 8.79198 3.27552 9.00845C3.03802 9.22492 2.8566 9.47541 2.73125 9.75991C2.6059 10.0444 2.53993 10.3536 2.53333 10.6876ZM17.4167 19L14.5667 16.9126L11.7167 19L12.8646 15.6602L10.1333 13.6563H13.5474L14.5667 10.6876L15.5859 13.6563H19L16.2688 15.6602L17.4167 19Z" fill="black"/>
<path d="M7.32292 13.5543C7.75174 13.7584 8.13767 14.0089 8.48073 14.3057C8.82378 14.6026 9.12066 14.9366 9.37135 15.3077C9.62205 15.6788 9.81007 16.0746 9.93542 16.4952C10.0608 16.9157 10.1267 17.3548 10.1333 17.8125H8.86667C8.86667 17.3239 8.76771 16.8632 8.56979 16.4302C8.37187 15.9973 8.10139 15.62 7.75833 15.2984C7.41528 14.9768 7.00955 14.7201 6.54115 14.5284C6.07274 14.3367 5.58125 14.2439 5.06667 14.2501C4.53889 14.2501 4.0474 14.3428 3.59219 14.5284C3.13698 14.7139 2.73455 14.9675 2.3849 15.2891C2.03524 15.6107 1.76146 15.9911 1.56354 16.4302C1.36562 16.8693 1.26667 17.3301 1.26667 17.8125H0C0 17.361 0.0659722 16.925 0.197917 16.5044C0.329861 16.0839 0.517882 15.688 0.761979 15.317C1.00608 14.9459 1.29965 14.6119 1.64271 14.315C1.98576 14.0181 2.375 13.7646 2.81042 13.5543C2.32222 13.2141 1.94288 12.7936 1.6724 12.2926C1.40191 11.7916 1.26667 11.2566 1.26667 10.6876C1.26667 10.199 1.36562 9.73826 1.56354 9.30532C1.76146 8.87239 2.03194 8.49511 2.375 8.1735C2.71806 7.8519 3.12049 7.59523 3.58229 7.4035C4.0441 7.21177 4.53889 7.119 5.06667 7.12518C5.67361 7.12518 6.24427 7.25197 6.77865 7.50555C7.31302 7.75912 7.76163 8.11475 8.12448 8.57242C8.37517 8.10856 8.69514 7.69418 9.08437 7.32928C9.47361 6.96438 9.91562 6.66441 10.4104 6.42939C9.92222 6.08923 9.54288 5.66866 9.2724 5.16769C9.00191 4.66672 8.86667 4.13174 8.86667 3.56274C8.86667 3.07414 8.96562 2.61337 9.16354 2.18043C9.36146 1.7475 9.63194 1.37022 9.975 1.04861C10.3181 0.727004 10.7205 0.470335 11.1823 0.278606C11.6441 0.0868771 12.1389 -0.00589489 12.6667 0.000289913C13.1878 0.000289913 13.6793 0.0930619 14.1411 0.278606C14.603 0.46415 15.0054 0.717727 15.3484 1.03934C15.6915 1.36095 15.9653 1.74131 16.1698 2.18043C16.3743 2.61955 16.4733 3.08032 16.4667 3.56274C16.4667 4.13174 16.3314 4.66672 16.0609 5.16769C15.7905 5.66866 15.4111 6.08923 14.9229 6.42939C15.3517 6.63349 15.7377 6.88397 16.0807 7.18084C16.4238 7.47771 16.7207 7.81169 16.9714 8.18278C17.222 8.55387 17.4101 8.9497 17.5354 9.37026C17.6608 9.79083 17.7267 10.23 17.7333 10.6876H16.4667C16.4667 10.199 16.3677 9.73826 16.1698 9.30532C15.9719 8.87239 15.7014 8.49511 15.3583 8.1735C15.0153 7.8519 14.6095 7.59523 14.1411 7.4035C13.6727 7.21177 13.1812 7.119 12.6667 7.12518C12.1389 7.12518 11.6474 7.21795 11.1922 7.4035C10.737 7.58904 10.3345 7.84262 9.9849 8.16423C9.63524 8.48584 9.36146 8.8662 9.16354 9.30532C8.96562 9.74444 8.86667 10.2052 8.86667 10.6876C8.86667 11.2566 8.73142 11.7916 8.46094 12.2926C8.19045 12.7936 7.81111 13.2141 7.32292 13.5543ZM10.1333 3.56274C10.1333 3.89053 10.1993 4.19668 10.3312 4.48118C10.4632 4.76568 10.6446 5.01926 10.8755 5.24191C11.1064 5.46456 11.3736 5.63464 11.6771 5.75216C11.9806 5.86967 12.3104 5.93151 12.6667 5.9377C13.0163 5.9377 13.3429 5.87585 13.6464 5.75216C13.9498 5.62846 14.2203 5.45838 14.4578 5.24191C14.6953 5.02544 14.8767 4.77496 15.0021 4.49046C15.1274 4.20595 15.1934 3.89671 15.2 3.56274C15.2 3.23494 15.134 2.92879 15.0021 2.64429C14.8701 2.35979 14.6887 2.10621 14.4578 1.88356C14.2269 1.66091 13.9597 1.49083 13.6562 1.37332C13.3528 1.2558 13.0229 1.19396 12.6667 1.18777C12.317 1.18777 11.9905 1.24962 11.687 1.37332C11.3835 1.49701 11.113 1.66709 10.8755 1.88356C10.638 2.10003 10.4566 2.35051 10.3312 2.63502C10.2059 2.91952 10.1399 3.22876 10.1333 3.56274ZM2.53333 10.6876C2.53333 11.0154 2.59931 11.3216 2.73125 11.6061C2.86319 11.8906 3.04462 12.1441 3.27552 12.3668C3.50642 12.5895 3.77361 12.7595 4.07708 12.877C4.38056 12.9946 4.71042 13.0564 5.06667 13.0626C5.41632 13.0626 5.74288 13.0007 6.04635 12.877C6.34983 12.7533 6.62031 12.5833 6.85781 12.3668C7.09531 12.1503 7.27674 11.8998 7.40208 11.6153C7.52743 11.3308 7.5934 11.0216 7.6 10.6876C7.6 10.3598 7.53403 10.0537 7.40208 9.76918C7.27014 9.48468 7.08872 9.23111 6.85781 9.00845C6.62691 8.7858 6.35972 8.61572 6.05625 8.49821C5.75278 8.3807 5.42292 8.31885 5.06667 8.31266C4.71701 8.31266 4.39045 8.37451 4.08698 8.49821C3.78351 8.6219 3.51302 8.79198 3.27552 9.00845C3.03802 9.22492 2.8566 9.47541 2.73125 9.75991C2.6059 10.0444 2.53993 10.3536 2.53333 10.6876ZM17.4167 19L14.5667 16.9126L11.7167 19L12.8646 15.6602L10.1333 13.6563H13.5474L14.5667 10.6876L15.5859 13.6563H19L16.2688 15.6602L17.4167 19Z" fill="#3F48CC"/>
</g>
</svg>
