<svg width="50" height="45" viewBox="0 0 50 45" fill="none" xmlns="http://www.w3.org/2000/svg">
<path d="M49.5098 1.32353H13.7255C13.4559 1.32353 13.2353 1.56176 13.2353 1.85294V5.55882C13.2353 5.85 13.4559 6.08824 13.7255 6.08824H49.5098C49.7794 6.08824 50 5.85 50 5.55882V1.85294C50 1.56176 49.7794 1.32353 49.5098 1.32353ZM49.5098 20.1176H13.7255C13.4559 20.1176 13.2353 20.3559 13.2353 20.6471V24.3529C13.2353 24.6441 13.4559 24.8824 13.7255 24.8824H49.5098C49.7794 24.8824 50 24.6441 50 24.3529V20.6471C50 20.3559 49.7794 20.1176 49.5098 20.1176ZM49.5098 38.9118H13.7255C13.4559 38.9118 13.2353 39.15 13.2353 39.4412V43.1471C13.2353 43.4382 13.4559 43.6765 13.7255 43.6765H49.5098C49.7794 43.6765 50 43.4382 50 43.1471V39.4412C50 39.15 49.7794 38.9118 49.5098 38.9118ZM0 3.70588C-6.71468e-09 4.19255 0.0887552 4.67444 0.261198 5.12406C0.43364 5.57368 0.686394 5.98221 1.00503 6.32634C1.32366 6.67046 1.70193 6.94343 2.11824 7.12967C2.53456 7.31591 2.98076 7.41177 3.43137 7.41177C3.88199 7.41177 4.32819 7.31591 4.7445 7.12967C5.16081 6.94343 5.53909 6.67046 5.85772 6.32634C6.17635 5.98221 6.42911 5.57368 6.60155 5.12406C6.77399 4.67444 6.86275 4.19255 6.86275 3.70588C6.86275 3.21922 6.77399 2.73732 6.60155 2.2877C6.42911 1.83808 6.17635 1.42955 5.85772 1.08543C5.53909 0.741305 5.16081 0.468331 4.7445 0.282093C4.32819 0.0958551 3.88199 0 3.43137 0C2.98076 0 2.53456 0.0958551 2.11824 0.282093C1.70193 0.468331 1.32366 0.741305 1.00503 1.08543C0.686394 1.42955 0.43364 1.83808 0.261198 2.2877C0.0887552 2.73732 -6.71467e-09 3.21922 0 3.70588ZM0 22.5C-6.71468e-09 22.9867 0.0887552 23.4686 0.261198 23.9182C0.43364 24.3678 0.686394 24.7763 1.00503 25.1205C1.32366 25.4646 1.70193 25.7376 2.11824 25.9238C2.53456 26.11 2.98076 26.2059 3.43137 26.2059C3.88199 26.2059 4.32819 26.11 4.7445 25.9238C5.16081 25.7376 5.53909 25.4646 5.85772 25.1205C6.17635 24.7763 6.42911 24.3678 6.60155 23.9182C6.77399 23.4686 6.86275 22.9867 6.86275 22.5C6.86275 22.0133 6.77399 21.5314 6.60155 21.0818C6.42911 20.6322 6.17635 20.2237 5.85772 19.8795C5.53909 19.5354 5.16081 19.2625 4.7445 19.0762C4.32819 18.89 3.88199 18.7941 3.43137 18.7941C2.98076 18.7941 2.53456 18.89 2.11824 19.0762C1.70193 19.2625 1.32366 19.5354 1.00503 19.8795C0.686394 20.2237 0.43364 20.6322 0.261198 21.0818C0.0887552 21.5314 -6.71467e-09 22.0133 0 22.5ZM0 41.2941C-6.71468e-09 41.7808 0.0887552 42.2627 0.261198 42.7123C0.43364 43.1619 0.686394 43.5704 1.00503 43.9146C1.32366 44.2587 1.70193 44.5317 2.11824 44.7179C2.53456 44.9041 2.98076 45 3.43137 45C3.88199 45 4.32819 44.9041 4.7445 44.7179C5.16081 44.5317 5.53909 44.2587 5.85772 43.9146C6.17635 43.5704 6.42911 43.1619 6.60155 42.7123C6.77399 42.2627 6.86275 41.7808 6.86275 41.2941C6.86275 40.8075 6.77399 40.3256 6.60155 39.8759C6.42911 39.4263 6.17635 39.0178 5.85772 38.6737C5.53909 38.3295 5.16081 38.0566 4.7445 37.8703C4.32819 37.6841 3.88199 37.5882 3.43137 37.5882C2.98076 37.5882 2.53456 37.6841 2.11824 37.8703C1.70193 38.0566 1.32366 38.3295 1.00503 38.6737C0.686394 39.0178 0.43364 39.4263 0.261198 39.8759C0.0887552 40.3256 -6.71467e-09 40.8075 0 41.2941Z" fill="#3F48CC"/>
</svg>
