<svg width="11" height="15" viewBox="0 0 11 15" fill="none" xmlns="http://www.w3.org/2000/svg">
<path d="M5.5 15C5.5 15 0 8.1525 0 5.25C-1.07627e-08 4.56056 0.142262 3.87787 0.418663 3.24091C0.695063 2.60395 1.10019 2.0252 1.61091 1.53769C2.12163 1.05018 2.72795 0.66347 3.39524 0.399632C4.06253 0.135795 4.77773 0 5.5 0C6.22227 0 6.93747 0.135795 7.60476 0.399632C8.27205 0.66347 8.87836 1.05018 9.38909 1.53769C9.89981 2.0252 10.3049 2.60395 10.5813 3.24091C10.8577 3.87787 11 4.56056 11 5.25C11 8.1525 5.5 15 5.5 15ZM5.5 6.75C5.91677 6.75 6.31647 6.59196 6.61117 6.31066C6.90587 6.02936 7.07143 5.64782 7.07143 5.25C7.07143 4.85218 6.90587 4.47064 6.61117 4.18934C6.31647 3.90804 5.91677 3.75 5.5 3.75C5.08323 3.75 4.68353 3.90804 4.38883 4.18934C4.09413 4.47064 3.92857 4.85218 3.92857 5.25C3.92857 5.64782 4.09413 6.02936 4.38883 6.31066C4.68353 6.59196 5.08323 6.75 5.5 6.75Z" fill="black"/>
</svg>
