<svg width="20" height="16" viewBox="0 0 20 16" fill="none" xmlns="http://www.w3.org/2000/svg">
<path d="M17.3477 4.09766L10 8.65234L2.65234 4.09766V2.25L10 6.84766L17.3477 2.25V4.09766ZM17.3477 0.402344H2.65234C2.16536 0.402344 1.73568 0.588542 1.36328 0.960938C1.01953 1.30469 0.847656 1.73438 0.847656 2.25V13.25C0.847656 13.7656 1.01953 14.2096 1.36328 14.582C1.73568 14.9258 2.16536 15.0977 2.65234 15.0977H17.3477C17.8346 15.0977 18.25 14.9258 18.5938 14.582C18.9661 14.2096 19.1523 13.7656 19.1523 13.25V2.25C19.1523 1.73438 18.9661 1.30469 18.5938 0.960938C18.25 0.588542 17.8346 0.402344 17.3477 0.402344Z" fill="white"/>
</svg>
