<svg width="18" height="18" viewBox="0 0 18 18" fill="none" xmlns="http://www.w3.org/2000/svg">
<path d="M4.5001 2.4001C3.94314 2.4001 3.409 2.62135 3.01517 3.01517C2.62135 3.409 2.4001 3.94314 2.4001 4.5001V13.5001C2.4001 14.6593 3.3409 15.6001 4.5001 15.6001H13.5001C14.0571 15.6001 14.5912 15.3788 14.985 14.985C15.3788 14.5912 15.6001 14.0571 15.6001 13.5001V11.1001C15.6001 10.8614 15.6949 10.6325 15.8637 10.4637C16.0325 10.2949 16.2614 10.2001 16.5001 10.2001C16.7388 10.2001 16.9677 10.2949 17.1365 10.4637C17.3053 10.6325 17.4001 10.8614 17.4001 11.1001V13.5001C17.4001 14.5344 16.9892 15.5264 16.2578 16.2578C15.5264 16.9892 14.5344 17.4001 13.5001 17.4001H4.5001C3.46575 17.4001 2.47377 16.9892 1.74238 16.2578C1.01099 15.5264 0.600098 14.5344 0.600098 13.5001V4.5001C0.600098 3.46575 1.01099 2.47377 1.74238 1.74238C2.47377 1.01099 3.46575 0.600098 4.5001 0.600098H6.9001C7.13879 0.600098 7.36771 0.694919 7.53649 0.863701C7.70528 1.03248 7.8001 1.2614 7.8001 1.5001C7.8001 1.73879 7.70528 1.96771 7.53649 2.13649C7.36771 2.30528 7.13879 2.4001 6.9001 2.4001H4.5001ZM9.6001 1.5001C9.6001 1.2614 9.69492 1.03248 9.8637 0.863701C10.0325 0.694919 10.2614 0.600098 10.5001 0.600098H16.5001C16.7388 0.600098 16.9677 0.694919 17.1365 0.863701C17.3053 1.03248 17.4001 1.2614 17.4001 1.5001V7.5001C17.4001 7.73879 17.3053 7.96771 17.1365 8.13649C16.9677 8.30528 16.7388 8.4001 16.5001 8.4001C16.2614 8.4001 16.0325 8.30528 15.8637 8.13649C15.6949 7.96771 15.6001 7.73879 15.6001 7.5001V3.6721L11.1361 8.1361C11.0537 8.22452 10.9543 8.29544 10.8439 8.34463C10.7335 8.39383 10.6144 8.42028 10.4935 8.42241C10.3727 8.42454 10.2526 8.40231 10.1406 8.35704C10.0285 8.31178 9.92671 8.24441 9.84125 8.15894C9.75579 8.07348 9.68841 7.97168 9.64315 7.85961C9.59788 7.74755 9.57565 7.62751 9.57779 7.50667C9.57992 7.38583 9.60637 7.26665 9.65556 7.15625C9.70475 7.04585 9.77567 6.94649 9.8641 6.8641L14.3281 2.4001H10.5001C10.2614 2.4001 10.0325 2.30528 9.8637 2.13649C9.69492 1.96771 9.6001 1.73879 9.6001 1.5001Z" fill="black"/>
</svg>
