<svg width="18" height="18" viewBox="0 0 18 18" fill="none" xmlns="http://www.w3.org/2000/svg">
<path d="M10.0385 13.5C10.0385 13.7054 9.97756 13.9062 9.86345 14.0769C9.74934 14.2477 9.58716 14.3808 9.3974 14.4594C9.20765 14.538 8.99885 14.5586 8.79741 14.5185C8.59597 14.4784 8.41093 14.3795 8.2657 14.2343C8.12047 14.0891 8.02156 13.904 7.98149 13.7026C7.94143 13.5011 7.96199 13.2923 8.04059 13.1026C8.11919 12.9128 8.25229 12.7507 8.42306 12.6365C8.59384 12.5224 8.79461 12.4615 9 12.4615C9.27542 12.4615 9.53956 12.5709 9.7343 12.7657C9.92905 12.9604 10.0385 13.2246 10.0385 13.5ZM9 4.15385C7.09096 4.15385 5.53846 5.55144 5.53846 7.26923V7.61538C5.53846 7.79899 5.6114 7.97509 5.74124 8.10492C5.87107 8.23475 6.04716 8.30769 6.23077 8.30769C6.41438 8.30769 6.59047 8.23475 6.72031 8.10492C6.85014 7.97509 6.92308 7.79899 6.92308 7.61538V7.26923C6.92308 6.31731 7.8551 5.53846 9 5.53846C10.1449 5.53846 11.0769 6.31731 11.0769 7.26923C11.0769 8.22115 10.1449 9 9 9C8.81639 9 8.6403 9.07294 8.51047 9.20277C8.38063 9.3326 8.30769 9.50869 8.30769 9.69231V10.3846C8.30769 10.5682 8.38063 10.7443 8.51047 10.8741C8.6403 11.004 8.81639 11.0769 9 11.0769C9.18361 11.0769 9.3597 11.004 9.48954 10.8741C9.61937 10.7443 9.69231 10.5682 9.69231 10.3846V10.3223C11.2708 10.0324 12.4615 8.77327 12.4615 7.26923C12.4615 5.55144 10.909 4.15385 9 4.15385ZM18 9C18 10.78 17.4722 12.5201 16.4832 14.0001C15.4943 15.4802 14.0887 16.6337 12.4442 17.3149C10.7996 17.9961 8.99002 18.1743 7.24419 17.8271C5.49836 17.4798 3.89471 16.6226 2.63604 15.364C1.37737 14.1053 0.520203 12.5016 0.172937 10.7558C-0.17433 9.00998 0.00389957 7.20038 0.685088 5.55585C1.36628 3.91131 2.51983 2.50571 3.99987 1.51677C5.47991 0.527841 7.21997 0 9 0C11.3862 0.00251984 13.6739 0.95154 15.3612 2.63882C17.0485 4.3261 17.9975 6.61382 18 9ZM16.6154 9C16.6154 7.49382 16.1688 6.02146 15.332 4.76912C14.4952 3.51677 13.3058 2.54069 11.9143 1.9643C10.5228 1.38791 8.99155 1.2371 7.51432 1.53094C6.03708 1.82478 4.68014 2.55008 3.61511 3.61511C2.55008 4.68014 1.82479 6.03707 1.53095 7.51431C1.23711 8.99155 1.38792 10.5228 1.96431 11.9143C2.5407 13.3058 3.51678 14.4952 4.76912 15.332C6.02146 16.1687 7.49382 16.6154 9 16.6154C11.019 16.6131 12.9547 15.81 14.3824 14.3824C15.81 12.9547 16.6131 11.019 16.6154 9Z" fill="#9B9A9A"/>
</svg>
