<svg width="206" height="41" viewBox="0 0 206 41" fill="none" xmlns="http://www.w3.org/2000/svg">
<path d="M0.18 6.07674V4.06074H12.672V6.07674L9.36 6.86874V19.8287C9.36 24.4367 11.268 26.7407 15.084 26.7407C16.956 26.7407 18.456 26.1647 19.584 25.0127C20.736 23.8367 21.312 22.1087 21.312 19.8287V6.86874L18 6.07674V4.06074H27.576V6.07674L24.264 6.86874V19.8287C24.264 23.0447 23.292 25.5167 21.348 27.2447C19.428 28.9487 16.992 29.8007 14.04 29.8007C10.968 29.8007 8.436 28.9487 6.444 27.2447C4.476 25.5167 3.492 23.0447 3.492 19.8287V6.86874L0.18 6.07674ZM27.9669 38.1527L31.0269 37.4327V14.5367H27.9669V12.6287L33.7269 11.2607H36.5709V12.9887C38.0349 11.4767 39.7869 10.7207 41.8269 10.7207C42.8349 10.7207 43.7829 10.9247 44.6709 11.3327C45.5829 11.7167 46.3749 12.2927 47.0469 13.0607C47.7189 13.8047 48.2469 14.7287 48.6309 15.8327C49.0389 16.9367 49.2429 18.1847 49.2429 19.5767C49.2429 21.2087 48.9549 22.6607 48.3789 23.9327C47.8269 25.2047 47.0709 26.2727 46.1109 27.1367C45.1509 28.0007 44.0229 28.6607 42.7269 29.1167C41.4549 29.5727 40.0989 29.8007 38.6589 29.8007C37.7229 29.8007 37.0269 29.7287 36.5709 29.5847V37.4327L40.3509 38.1527V40.0607H27.9669V38.1527ZM36.5709 27.1007C37.1229 27.3407 37.7109 27.4607 38.3349 27.4607C39.8709 27.4607 41.1189 26.8127 42.0789 25.5167C43.0389 24.1967 43.5189 22.2647 43.5189 19.7207C43.5189 17.7767 43.1829 16.3367 42.5109 15.4007C41.8389 14.4647 40.9149 13.9967 39.7389 13.9967C39.2109 13.9967 38.6349 14.1167 38.0109 14.3567C37.4109 14.5967 36.9309 14.8967 36.5709 15.2567V27.1007ZM51.12 29.2607V27.2447L54.432 26.4527V6.86874L51.12 6.07674V4.06074H62.388C65.724 4.06074 68.22 4.67274 69.876 5.89674C71.556 7.09674 72.396 8.81274 72.396 11.0447C72.396 12.5567 71.964 13.8767 71.1 15.0047C70.236 16.1327 69.048 16.9247 67.536 17.3807L72.576 26.4887L76.032 27.3527V29.2607H67.284L61.56 18.3527H60.3V26.4527L63.432 27.2447V29.2607H51.12ZM60.3 15.8327H61.344C63.024 15.8327 64.308 15.4007 65.196 14.5367C66.084 13.6727 66.528 12.5087 66.528 11.0447C66.528 9.72474 66.072 8.66874 65.16 7.87674C64.248 7.08474 62.964 6.68874 61.308 6.68874H60.3V15.8327ZM76.5799 20.0447C76.5799 17.2127 77.3719 14.9567 78.9559 13.2767C80.5639 11.5727 82.7359 10.7207 85.4719 10.7207C88.2559 10.7207 90.3559 11.6687 91.7719 13.5647C93.2119 15.4607 93.9319 17.8007 93.9319 20.5847H82.1239C82.2919 22.3607 82.9279 23.8967 84.0319 25.1927C85.1359 26.4647 86.5519 27.1007 88.2799 27.1007C89.5759 27.1007 90.9679 26.8247 92.4559 26.2727L93.2119 28.3247C90.9799 29.3087 88.7959 29.8007 86.6599 29.8007C83.5639 29.8007 81.1039 28.9007 79.2799 27.1007C77.4799 25.2767 76.5799 22.9247 76.5799 20.0447ZM82.1239 18.3527L88.2079 17.9567C88.2079 17.3807 88.1719 16.8527 88.0999 16.3727C88.0279 15.8687 87.8239 15.2687 87.4879 14.5727C86.8879 13.5647 86.1799 13.0607 85.3639 13.0607C84.4039 13.0607 83.6119 13.5527 82.9879 14.5367C82.6279 15.1367 82.3879 15.7967 82.2679 16.5167C82.1479 17.2367 82.0999 17.8487 82.1239 18.3527ZM96.2331 24.7967C96.2331 22.7087 97.0851 21.1247 98.7891 20.0447C100.517 18.9407 103.301 18.3887 107.141 18.3887V17.3087C107.141 16.5887 107.129 16.0727 107.105 15.7607C107.105 15.4247 107.057 15.0287 106.961 14.5727C106.865 14.1167 106.721 13.7927 106.529 13.6007C106.361 13.4087 106.097 13.2407 105.737 13.0967C105.377 12.9287 104.933 12.8447 104.405 12.8447L99.8331 16.8047C98.2011 15.8687 97.3851 14.4167 97.3851 12.4487L98.4651 11.9807C98.9211 11.7887 99.8091 11.5367 101.129 11.2247C102.449 10.8887 103.733 10.7207 104.981 10.7207C110.141 10.7207 112.721 12.7847 112.721 16.9127V26.5607H115.529V28.1087C115.409 28.2287 115.241 28.3847 115.025 28.5767C114.809 28.7687 114.341 29.0207 113.621 29.3327C112.901 29.6447 112.157 29.8007 111.389 29.8007C109.565 29.8007 108.209 29.1887 107.321 27.9647C105.713 29.1887 103.961 29.8007 102.065 29.8007C100.409 29.8007 99.0171 29.3807 97.8891 28.5407C96.7851 27.7007 96.2331 26.4527 96.2331 24.7967ZM102.029 24.4727C102.029 25.1687 102.257 25.7207 102.713 26.1287C103.193 26.5367 103.769 26.7407 104.441 26.7407C105.521 26.7407 106.421 26.3447 107.141 25.5527V20.6207C105.797 20.6207 104.609 20.9807 103.577 21.7007C102.545 22.3967 102.029 23.3207 102.029 24.4727ZM117.195 20.1887C117.195 17.4047 118.107 15.1367 119.931 13.3847C121.779 11.6087 123.951 10.7207 126.447 10.7207C128.535 10.7207 130.587 11.2247 132.603 12.2327C132.531 14.2247 131.655 15.6887 129.975 16.6247L126.879 13.0607H126.663C125.655 13.3487 124.767 14.0927 123.999 15.2927C123.231 16.4687 122.847 18.1247 122.847 20.2607C122.823 22.6607 123.363 24.4607 124.467 25.6607C125.499 26.6447 126.843 27.1367 128.499 27.1367C129.195 27.1367 129.867 27.0767 130.515 26.9567C131.187 26.8367 131.871 26.6687 132.567 26.4527L132.999 28.5767C131.055 29.3927 129.063 29.8007 127.023 29.8007C124.311 29.8007 121.995 28.9367 120.075 27.2087C118.155 25.4807 117.195 23.1407 117.195 20.1887ZM134.445 29.2607V27.3527L137.505 26.6327V3.73674H134.445V1.82874L140.205 0.460742H143.049V13.0247C144.513 11.4887 146.325 10.7207 148.485 10.7207C149.421 10.7207 150.261 10.8647 151.005 11.1527C151.773 11.4167 152.409 11.8007 152.913 12.3047C153.441 12.8087 153.849 13.4087 154.137 14.1047C154.425 14.8007 154.569 15.5567 154.569 16.3727V26.6327L157.629 27.3527V29.2607H146.685V27.3527L149.025 26.6327V17.3807C149.025 16.1807 148.881 15.3047 148.593 14.7527C148.329 14.1767 147.741 13.8887 146.829 13.8887C146.349 13.8887 145.785 14.0087 145.137 14.2487C144.489 14.4887 143.793 14.8967 143.049 15.4727V26.6327L145.389 27.3527V29.2607H134.445Z" fill="url(#paint0_linear_894_265)"/>
<defs>
<linearGradient id="paint0_linear_894_265" x1="0" y1="19.6086" x2="205.053" y2="19.6086" gradientUnits="userSpaceOnUse">
<stop stop-color="#2196F3"/>
<stop offset="1" stop-color="#F44336"/>
</linearGradient>
</defs>
</svg>
