<svg width="56" height="50" viewBox="0 0 56 50" fill="none" xmlns="http://www.w3.org/2000/svg">
<path d="M51.9408 25.7576L55.9583 30.0303L37.2194 50L27.2617 39.3939L31.2793 35.1212L37.2194 41.4242L51.9408 25.7576ZM20.0876 39.3939L28.6966 48.4848H0V42.4242C0 35.7273 10.2734 30.303 22.9573 30.303L28.3809 30.6364L20.0876 39.3939ZM22.9573 0C26.0016 0 28.9212 1.27705 31.0739 3.55022C33.2265 5.82339 34.4359 8.90647 34.4359 12.1212C34.4359 15.336 33.2265 18.419 31.0739 20.6922C28.9212 22.9654 26.0016 24.2424 22.9573 24.2424C19.9129 24.2424 16.9933 22.9654 14.8406 20.6922C12.688 18.419 11.4786 15.336 11.4786 12.1212C11.4786 8.90647 12.688 5.82339 14.8406 3.55022C16.9933 1.27705 19.9129 0 22.9573 0Z" fill="#3F48CC"/>
</svg>
