<svg width="55" height="50" viewBox="0 0 55 50" fill="none" xmlns="http://www.w3.org/2000/svg">
<path d="M16.94 0L13.0625 3.91667L20.185 11.1111H5.5C2.4475 11.1111 0 13.5833 0 16.6667V44.4444C0 47.5278 2.4475 50 5.5 50H49.5C52.5525 50 55 47.5278 55 44.4444V16.6667C55 13.5833 52.5525 11.1111 49.5 11.1111H34.815L41.9375 3.91667L38.06 0L27.5 10.6667L16.94 0ZM5.5 16.6667H41.25V44.4444H5.5V16.6667ZM48.125 16.6667C48.8543 16.6667 49.5538 16.9593 50.0695 17.4803C50.5853 18.0012 50.875 18.7077 50.875 19.4444C50.875 20.1812 50.5853 20.8877 50.0695 21.4086C49.5538 21.9296 48.8543 22.2222 48.125 22.2222C47.3957 22.2222 46.6962 21.9296 46.1805 21.4086C45.6647 20.8877 45.375 20.1812 45.375 19.4444C45.375 18.7077 45.6647 18.0012 46.1805 17.4803C46.6962 16.9593 47.3957 16.6667 48.125 16.6667ZM48.125 25C48.8543 25 49.5538 25.2927 50.0695 25.8136C50.5853 26.3345 50.875 27.0411 50.875 27.7778C50.875 28.5145 50.5853 29.221 50.0695 29.742C49.5538 30.2629 48.8543 30.5556 48.125 30.5556C47.3957 30.5556 46.6962 30.2629 46.1805 29.742C45.6647 29.221 45.375 28.5145 45.375 27.7778C45.375 27.0411 45.6647 26.3345 46.1805 25.8136C46.6962 25.2927 47.3957 25 48.125 25Z" fill="#3F48CC"/>
</svg>
