<svg width="15" height="19" viewBox="0 0 15 19" fill="none" xmlns="http://www.w3.org/2000/svg">
<rect width="15" height="19" fill="#E5E5E5"/>
<g clip-path="url(#clip0_201_116)">
<rect width="1920" height="1218" transform="translate(-1494 -442)" fill="#F1F2F3"/>
<g filter="url(#filter0_d_201_116)">
<rect x="-27" y="-176" width="376" height="263" rx="8" fill="white"/>
</g>
<path d="M5.35714 5.7C5.35714 5.44804 5.47003 5.20641 5.67096 5.02825C5.87189 4.85009 6.14441 4.75 6.42857 4.75C6.71273 4.75 6.98525 4.85009 7.18619 5.02825C7.38712 5.20641 7.5 5.44804 7.5 5.7V9.9465L8.79643 10.07L14.0893 12.1505C14.6571 12.3785 15 12.882 15 13.433V17.575C14.9679 18.354 14.2714 18.9715 13.3929 19H6.42857C6.02143 19 5.63571 18.8575 5.35714 18.5915L0.107143 14.6015L0.9 13.87C1.10357 13.6705 1.39286 13.566 1.69286 13.566H1.92857L5.35714 15.2V5.7ZM6.42857 1.9C7.56521 1.9 8.6553 2.30036 9.45903 3.01299C10.2628 3.72563 10.7143 4.69218 10.7143 5.7C10.7143 7.125 9.85714 8.3315 8.57143 8.987V7.828C9.225 7.3055 9.64286 6.5455 9.64286 5.7C9.64286 4.94413 9.30421 4.21922 8.70141 3.68475C8.09862 3.15027 7.28105 2.85 6.42857 2.85C5.57609 2.85 4.75852 3.15027 4.15573 3.68475C3.55293 4.21922 3.21429 4.94413 3.21429 5.7C3.21429 6.5455 3.63214 7.3055 4.28571 7.828V8.987C3 8.3315 2.14286 7.125 2.14286 5.7C2.14286 4.69218 2.59439 3.72563 3.39811 3.01299C4.20184 2.30036 5.29193 1.9 6.42857 1.9ZM6.42857 0C8.13353 0 9.76867 0.600534 10.9743 1.66949C12.1798 2.73845 12.8571 4.18827 12.8571 5.7C12.8571 7.315 12.0964 8.7685 10.8857 9.8135L9.81429 9.386C10.43 8.93918 10.9261 8.37679 11.267 7.73938C11.608 7.10198 11.7851 6.40544 11.7857 5.7C11.7857 4.44022 11.2213 3.23204 10.2166 2.34124C9.21198 1.45044 7.84937 0.95 6.42857 0.95C5.00777 0.95 3.64516 1.45044 2.6405 2.34124C1.63584 3.23204 1.07143 4.44022 1.07143 5.7C1.07143 7.6475 2.38929 9.3195 4.28571 10.051V11.077C1.78929 10.2885 0 8.1795 0 5.7C0 4.18827 0.677294 2.73845 1.88289 1.66949C3.08848 0.600534 4.72361 0 6.42857 0Z" fill="#3F48CC"/>
</g>
<defs>
<filter id="filter0_d_201_116" x="-31" y="-176" width="384" height="271" filterUnits="userSpaceOnUse" color-interpolation-filters="sRGB">
<feFlood flood-opacity="0" result="BackgroundImageFix"/>
<feColorMatrix in="SourceAlpha" type="matrix" values="0 0 0 0 0 0 0 0 0 0 0 0 0 0 0 0 0 0 127 0" result="hardAlpha"/>
<feOffset dy="4"/>
<feGaussianBlur stdDeviation="2"/>
<feComposite in2="hardAlpha" operator="out"/>
<feColorMatrix type="matrix" values="0 0 0 0 0 0 0 0 0 0 0 0 0 0 0 0 0 0 0.25 0"/>
<feBlend mode="normal" in2="BackgroundImageFix" result="effect1_dropShadow_201_116"/>
<feBlend mode="normal" in="SourceGraphic" in2="effect1_dropShadow_201_116" result="shape"/>
</filter>
<clipPath id="clip0_201_116">
<rect width="1920" height="1218" fill="white" transform="translate(-1494 -442)"/>
</clipPath>
</defs>
</svg>
