<svg width="18" height="18" viewBox="0 0 18 18" fill="none" xmlns="http://www.w3.org/2000/svg">
<path d="M13.7812 0H4.21875C1.8888 0 0 1.8888 0 4.21875V13.7812C0 16.1112 1.8888 18 4.21875 18H13.7812C16.1112 18 18 16.1112 18 13.7812V4.21875C18 1.8888 16.1112 0 13.7812 0Z" fill="url(#paint0_radial_1712_1603)"/>
<path d="M13.7812 0H4.21875C1.8888 0 0 1.8888 0 4.21875V13.7812C0 16.1112 1.8888 18 4.21875 18H13.7812C16.1112 18 18 16.1112 18 13.7812V4.21875C18 1.8888 16.1112 0 13.7812 0Z" fill="url(#paint1_radial_1712_1603)"/>
<path d="M9.00063 1.96899C7.09109 1.96899 6.85139 1.97736 6.10144 2.01146C5.35289 2.04578 4.84193 2.16425 4.39488 2.33813C3.93237 2.51771 3.54009 2.75797 3.1493 3.14891C2.75815 3.53978 2.51789 3.93205 2.33775 4.39435C2.16338 4.84154 2.04476 5.35271 2.01108 6.10091C1.97754 6.85093 1.96875 7.0907 1.96875 9.00031C1.96875 10.9099 1.97719 11.1489 2.01122 11.8988C2.04567 12.6474 2.16415 13.1583 2.33789 13.6054C2.51761 14.0679 2.75787 14.4602 3.1488 14.8509C3.53953 15.2421 3.9318 15.4829 4.39397 15.6625C4.84137 15.8364 5.3524 15.9549 6.1008 15.9892C6.85083 16.0233 7.09031 16.0316 8.99979 16.0316C10.9095 16.0316 11.1485 16.0233 11.8984 15.9892C12.647 15.9549 13.1585 15.8364 13.6059 15.6625C14.0682 15.4829 14.4599 15.2421 14.8506 14.8509C15.2417 14.4602 15.4819 14.0679 15.6621 13.6056C15.8349 13.1583 15.9536 12.6472 15.9888 11.8989C16.0225 11.149 16.0312 10.9099 16.0312 9.00031C16.0312 7.0907 16.0225 6.85107 15.9888 6.10105C15.9536 5.3525 15.8349 4.84161 15.6621 4.39456C15.4819 3.93205 15.2417 3.53978 14.8506 3.14891C14.4595 2.75783 14.0683 2.51757 13.6055 2.33821C13.1572 2.16425 12.646 2.04571 11.8974 2.01146C11.1474 1.97736 10.9086 1.96899 8.99845 1.96899H9.00063ZM8.36986 3.2361C8.5571 3.23581 8.766 3.2361 9.00063 3.2361C10.878 3.2361 11.1005 3.24285 11.8419 3.27653C12.5274 3.30788 12.8995 3.42242 13.1474 3.51868C13.4755 3.64609 13.7095 3.79846 13.9554 4.04462C14.2015 4.29071 14.3538 4.52506 14.4816 4.85321C14.5778 5.10071 14.6925 5.47281 14.7237 6.15835C14.7574 6.89959 14.7647 7.1222 14.7647 8.9987C14.7647 10.8752 14.7574 11.0979 14.7237 11.839C14.6924 12.5246 14.5778 12.8967 14.4816 13.1443C14.3542 13.4724 14.2015 13.706 13.9554 13.952C13.7093 14.1981 13.4757 14.3504 13.1474 14.4779C12.8998 14.5745 12.5274 14.6888 11.8419 14.7202C11.1007 14.7538 10.878 14.7612 9.00063 14.7612C7.12315 14.7612 6.90061 14.7538 6.15945 14.7202C5.4739 14.6885 5.1018 14.574 4.85374 14.4777C4.52566 14.3503 4.29124 14.198 4.04515 13.9519C3.79905 13.7058 3.64676 13.472 3.519 13.1437C3.42274 12.8961 3.30806 12.524 3.27684 11.8385C3.24316 11.0972 3.23641 10.8746 3.23641 8.99694C3.23641 7.11931 3.24316 6.89783 3.27684 6.1566C3.3082 5.47105 3.42274 5.09895 3.519 4.8511C3.64648 4.52295 3.79905 4.2886 4.04522 4.04251C4.29131 3.79642 4.52566 3.64405 4.85381 3.51636C5.10166 3.41968 5.4739 3.30542 6.15945 3.27392C6.80808 3.2446 7.05945 3.23581 8.36986 3.23434V3.2361ZM12.7539 4.40356C12.2881 4.40356 11.9102 4.78114 11.9102 5.24703C11.9102 5.71285 12.2881 6.09078 12.7539 6.09078C13.2197 6.09078 13.5977 5.71285 13.5977 5.24703C13.5977 4.78121 13.2197 4.40328 12.7539 4.40328V4.40356ZM9.00063 5.38942C7.00657 5.38942 5.3898 7.00618 5.3898 9.00031C5.3898 10.9944 7.00657 12.6104 9.00063 12.6104C10.9948 12.6104 12.611 10.9944 12.611 9.00031C12.611 7.00625 10.9946 5.38942 9.00049 5.38942H9.00063ZM9.00063 6.65652C10.295 6.65652 11.3444 7.70579 11.3444 9.00031C11.3444 10.2947 10.295 11.3441 9.00063 11.3441C7.70618 11.3441 6.65691 10.2947 6.65691 9.00031C6.65691 7.70579 7.70618 6.65652 9.00063 6.65652Z" fill="white"/>
<defs>
<radialGradient id="paint0_radial_1712_1603" cx="0" cy="0" r="1" gradientUnits="userSpaceOnUse" gradientTransform="translate(4.78125 19.3864) rotate(-90) scale(17.8393 16.592)">
<stop stop-color="#FFDD55"/>
<stop offset="0.1" stop-color="#FFDD55"/>
<stop offset="0.5" stop-color="#FF543E"/>
<stop offset="1" stop-color="#C837AB"/>
</radialGradient>
<radialGradient id="paint1_radial_1712_1603" cx="0" cy="0" r="1" gradientUnits="userSpaceOnUse" gradientTransform="translate(-3.01507 1.29663) rotate(78.681) scale(7.97428 32.8702)">
<stop stop-color="#3771C8"/>
<stop offset="0.128" stop-color="#3771C8"/>
<stop offset="1" stop-color="#6600FF" stop-opacity="0"/>
</radialGradient>
</defs>
</svg>
