<svg width="20" height="18" viewBox="0 0 20 18" fill="none" xmlns="http://www.w3.org/2000/svg">
<path d="M8.15234 0.597656H11.8477C12.3346 0.597656 12.75 0.783854 13.0938 1.15625C13.4661 1.5 13.6523 1.91536 13.6523 2.40234V4.25H17.3477C17.8346 4.25 18.25 4.4362 18.5938 4.80859C18.9661 5.15234 19.1523 5.58203 19.1523 6.09766V16.1523C19.1523 16.668 18.9661 17.112 18.5938 17.4844C18.25 17.8281 17.8346 18 17.3477 18H2.65234C2.16536 18 1.73568 17.8281 1.36328 17.4844C1.01953 17.112 0.847656 16.668 0.847656 16.1523V6.09766C0.847656 5.58203 1.01953 5.15234 1.36328 4.80859C1.73568 4.4362 2.16536 4.25 2.65234 4.25H6.34766V2.40234C6.34766 1.91536 6.51953 1.5 6.86328 1.15625C7.23568 0.783854 7.66536 0.597656 8.15234 0.597656ZM11.8477 4.25V2.40234H8.15234V4.25H11.8477ZM8.625 14.7773L14.6836 8.76172L13.3945 7.47266L8.625 12.1992L6.69141 10.3086L5.40234 11.5977L8.625 14.7773Z" fill="white"/>
</svg>
