<svg width="24" height="24" viewBox="0 0 24 24" fill="none" xmlns="http://www.w3.org/2000/svg">
<path fill-rule="evenodd" clip-rule="evenodd" d="M11.4357 3.00738L11.0009 3.05242C8.89086 3.26296 6.76509 4.35059 5.32763 5.95615C3.73808 7.73171 2.93036 9.93512 3.00471 12.2827C3.13426 16.3371 5.92244 19.77 9.87771 20.7473C11.0422 21.0283 12.251 21.0755 13.4339 20.8861C14.6168 20.6967 15.7503 20.2745 16.7687 19.6439C18.7715 18.3967 20.2049 16.4143 20.7612 14.1224C20.9549 13.3331 21 12.9312 21 11.9978C21 11.0644 20.9549 10.6625 20.7612 9.8732C19.869 6.23087 16.8679 3.55119 13.1334 3.06255C12.8135 3.02089 11.6497 2.98373 11.4357 3.00738ZM12.9678 4.75029C13.7458 4.84998 14.5021 5.07708 15.2062 5.42246C15.9925 5.80527 16.5355 6.19484 17.1743 6.83323C17.7603 7.39789 18.2386 8.0644 18.5858 8.8002C19.0871 9.83041 19.3136 10.8246 19.3136 11.9978C19.329 13.1179 19.0739 14.2252 18.5701 15.2258C18.3763 15.621 17.9854 16.2549 17.8029 16.4699L17.7409 16.5431L12.6005 11.4044L7.45903 6.2669L7.53226 6.20497C7.74743 6.02257 8.38167 5.63188 8.77708 5.43823C10.074 4.796 11.5335 4.55641 12.9678 4.75029ZM11.4211 12.599L16.5581 17.7343L16.4826 17.794C16.0897 18.084 15.6729 18.3401 15.2366 18.5596C14.5308 18.9049 13.7757 19.1388 12.9982 19.2532C12.5206 19.3264 11.4932 19.3264 11.0155 19.2532C8.82102 18.9199 6.96899 17.7231 5.80302 15.8833C5.51623 15.4081 5.277 14.9057 5.0888 14.3836C4.64741 13.0838 4.57373 11.6874 4.87588 10.3483C5.10773 9.38009 5.5272 8.46665 6.11057 7.65965C6.18943 7.55269 6.2604 7.46487 6.26941 7.46487C6.2773 7.46487 8.59571 9.77524 11.4211 12.599Z" fill="#9B9A9A"/>
</svg>
