<svg width="18" height="18" viewBox="0 0 18 18" fill="none" xmlns="http://www.w3.org/2000/svg">
<path d="M0 3C0 1.34315 1.34315 0 3 0H15C16.6569 0 18 1.34315 18 3V15C18 16.6569 16.6569 18 15 18H3C1.34315 18 0 16.6569 0 15V3Z" fill="black"/>
<path d="M12.3751 7.04101C13.3965 7.68525 14.6479 8.06431 15.9994 8.06431V5.76976C15.7436 5.76981 15.4885 5.74625 15.2382 5.69947V7.50561C13.8868 7.50561 12.6356 7.1266 11.614 6.48241V11.165C11.614 13.5075 9.46169 15.4062 6.80694 15.4062C5.81638 15.4062 4.89566 15.142 4.13086 14.6889C5.00378 15.4764 6.22113 15.9649 7.56786 15.9649C10.2228 15.9649 12.3752 14.0661 12.3752 11.7235V7.04101H12.3751ZM13.314 4.72608C12.792 4.2229 12.4492 3.57263 12.3751 2.8537V2.55859H11.6538C11.8353 3.47231 12.4547 4.25293 13.314 4.72608ZM5.80998 12.8914C5.51833 12.554 5.36067 12.1412 5.36138 11.7168C5.36138 10.6455 6.34581 9.7768 7.56037 9.7768C7.78668 9.7767 8.01165 9.80736 8.22739 9.8677V7.52183C7.97528 7.49137 7.72088 7.47839 7.46658 7.48317V9.30906C7.25074 9.24867 7.02565 9.21802 6.79923 9.2182C5.58473 9.2182 4.60035 10.0868 4.60035 11.1583C4.60035 11.9159 5.09237 12.5718 5.80998 12.8914Z" fill="#FF004F"/>
<path d="M11.6139 6.48236C12.6356 7.12655 13.8867 7.50557 15.2381 7.50557V5.69942C14.4838 5.55763 13.816 5.20986 13.3139 4.72608C12.4545 4.25288 11.8353 3.47226 11.6537 2.55859H9.75916V11.7234C9.75484 12.7919 8.7721 13.657 7.56017 13.657C6.84606 13.657 6.21158 13.3566 5.80979 12.8913C5.09229 12.5718 4.60021 11.9159 4.60021 11.1583C4.60021 10.0869 5.58459 9.21825 6.79909 9.21825C7.03178 9.21825 7.25605 9.25021 7.46644 9.3091V7.48321C4.85828 7.53077 2.76074 9.41101 2.76074 11.7235C2.76074 12.8778 3.28306 13.9243 4.13083 14.689C4.89563 15.142 5.8163 15.4063 6.80691 15.4063C9.46171 15.4063 11.6139 13.5074 11.6139 11.165V6.48241L11.6139 6.48236Z" fill="white"/>
<path d="M15.2385 5.69938V5.21112C14.5582 5.21203 13.8914 5.04395 13.3142 4.72609C13.8251 5.21957 14.4979 5.55988 15.2385 5.69948V5.69938ZM11.654 2.55855C11.6367 2.47125 11.6234 2.38336 11.6142 2.29511V2H8.99825V11.1649C8.99409 12.2333 8.01136 13.0984 6.79938 13.0984C6.45579 13.0988 6.1169 13.0279 5.81008 12.8914C6.21187 13.3567 6.84635 13.6569 7.56046 13.6569C8.77234 13.6569 9.75518 12.7919 9.75945 11.7235V2.5586H11.654V2.55855ZM7.46689 7.48317V6.96329C7.2483 6.93691 7.02793 6.92372 6.8073 6.9238C4.15223 6.9238 2 8.82268 2 11.1649C2 12.6334 2.84585 13.9276 4.13123 14.6889C3.28346 13.9243 2.76114 12.8778 2.76114 11.7234C2.76114 9.41102 4.85863 7.53072 7.46689 7.48317Z" fill="#00F2EA"/>
</svg>
