<svg width="1400" height="170" viewBox="0 0 1768 273" fill="none" xmlns="http://www.w3.org/2000/svg">
<g filter="url(#filter0_d_1011_2233)">
<g filter="url(#filter1_d_1011_2233)">
<rect x="1358" y="52" width="317.456" height="130" rx="30" fill="white"/>
</g>
<path d="M1393.46 101.27V96.11H1403.1V125.27H1397.34V101.27H1393.46ZM1408.64 110.31C1408.64 105.697 1409.46 102.083 1411.12 99.47C1412.8 96.8567 1415.57 95.55 1419.44 95.55C1423.3 95.55 1426.06 96.8567 1427.72 99.47C1429.4 102.083 1430.24 105.697 1430.24 110.31C1430.24 114.95 1429.4 118.59 1427.72 121.23C1426.06 123.87 1423.3 125.19 1419.44 125.19C1415.57 125.19 1412.8 123.87 1411.12 121.23C1409.46 118.59 1408.64 114.95 1408.64 110.31ZM1424.72 110.31C1424.72 108.337 1424.58 106.683 1424.32 105.35C1424.08 103.99 1423.57 102.883 1422.8 102.03C1422.05 101.177 1420.93 100.75 1419.44 100.75C1417.94 100.75 1416.81 101.177 1416.04 102.03C1415.29 102.883 1414.78 103.99 1414.52 105.35C1414.28 106.683 1414.16 108.337 1414.16 110.31C1414.16 112.337 1414.28 114.043 1414.52 115.43C1414.76 116.79 1415.26 117.897 1416.04 118.75C1416.81 119.577 1417.94 119.99 1419.44 119.99C1420.93 119.99 1422.06 119.577 1422.84 118.75C1423.61 117.897 1424.12 116.79 1424.36 115.43C1424.6 114.043 1424.72 112.337 1424.72 110.31ZM1437.62 125.55C1436.6 125.55 1435.76 125.243 1435.1 124.63C1434.46 123.99 1434.14 123.203 1434.14 122.27C1434.14 121.337 1434.46 120.563 1435.1 119.95C1435.76 119.31 1436.6 118.99 1437.62 118.99C1438.6 118.99 1439.42 119.31 1440.06 119.95C1440.7 120.563 1441.02 121.337 1441.02 122.27C1441.02 123.203 1440.7 123.99 1440.06 124.63C1439.42 125.243 1438.6 125.55 1437.62 125.55ZM1444.89 110.31C1444.89 105.697 1445.71 102.083 1447.37 99.47C1449.05 96.8567 1451.82 95.55 1455.69 95.55C1459.55 95.55 1462.31 96.8567 1463.97 99.47C1465.65 102.083 1466.49 105.697 1466.49 110.31C1466.49 114.95 1465.65 118.59 1463.97 121.23C1462.31 123.87 1459.55 125.19 1455.69 125.19C1451.82 125.19 1449.05 123.87 1447.37 121.23C1445.71 118.59 1444.89 114.95 1444.89 110.31ZM1460.97 110.31C1460.97 108.337 1460.83 106.683 1460.57 105.35C1460.33 103.99 1459.82 102.883 1459.05 102.03C1458.3 101.177 1457.18 100.75 1455.69 100.75C1454.19 100.75 1453.06 101.177 1452.29 102.03C1451.54 102.883 1451.03 103.99 1450.77 105.35C1450.53 106.683 1450.41 108.337 1450.41 110.31C1450.41 112.337 1450.53 114.043 1450.77 115.43C1451.01 116.79 1451.51 117.897 1452.29 118.75C1453.06 119.577 1454.19 119.99 1455.69 119.99C1457.18 119.99 1458.31 119.577 1459.09 118.75C1459.86 117.897 1460.37 116.79 1460.61 115.43C1460.85 114.043 1460.97 112.337 1460.97 110.31ZM1470.75 110.31C1470.75 105.697 1471.57 102.083 1473.23 99.47C1474.91 96.8567 1477.68 95.55 1481.55 95.55C1485.41 95.55 1488.17 96.8567 1489.83 99.47C1491.51 102.083 1492.35 105.697 1492.35 110.31C1492.35 114.95 1491.51 118.59 1489.83 121.23C1488.17 123.87 1485.41 125.19 1481.55 125.19C1477.68 125.19 1474.91 123.87 1473.23 121.23C1471.57 118.59 1470.75 114.95 1470.75 110.31ZM1486.83 110.31C1486.83 108.337 1486.69 106.683 1486.43 105.35C1486.19 103.99 1485.68 102.883 1484.91 102.03C1484.16 101.177 1483.04 100.75 1481.55 100.75C1480.05 100.75 1478.92 101.177 1478.15 102.03C1477.4 102.883 1476.89 103.99 1476.63 105.35C1476.39 106.683 1476.27 108.337 1476.27 110.31C1476.27 112.337 1476.39 114.043 1476.63 115.43C1476.87 116.79 1477.37 117.897 1478.15 118.75C1478.92 119.577 1480.05 119.99 1481.55 119.99C1483.04 119.99 1484.17 119.577 1484.95 118.75C1485.72 117.897 1486.23 116.79 1486.47 115.43C1486.71 114.043 1486.83 112.337 1486.83 110.31ZM1496.6 110.31C1496.6 105.697 1497.43 102.083 1499.08 99.47C1500.76 96.8567 1503.54 95.55 1507.4 95.55C1511.27 95.55 1514.03 96.8567 1515.68 99.47C1517.36 102.083 1518.2 105.697 1518.2 110.31C1518.2 114.95 1517.36 118.59 1515.68 121.23C1514.03 123.87 1511.27 125.19 1507.4 125.19C1503.54 125.19 1500.76 123.87 1499.08 121.23C1497.43 118.59 1496.6 114.95 1496.6 110.31ZM1512.68 110.31C1512.68 108.337 1512.55 106.683 1512.28 105.35C1512.04 103.99 1511.54 102.883 1510.76 102.03C1510.02 101.177 1508.9 100.75 1507.4 100.75C1505.91 100.75 1504.78 101.177 1504 102.03C1503.26 102.883 1502.75 103.99 1502.48 105.35C1502.24 106.683 1502.12 108.337 1502.12 110.31C1502.12 112.337 1502.24 114.043 1502.48 115.43C1502.72 116.79 1503.23 117.897 1504 118.75C1504.78 119.577 1505.91 119.99 1507.4 119.99C1508.9 119.99 1510.03 119.577 1510.8 118.75C1511.58 117.897 1512.08 116.79 1512.32 115.43C1512.56 114.043 1512.68 112.337 1512.68 110.31Z" fill="#222222" fill-opacity="0.3"/>
<path d="M1411.36 155.988H1404.67L1403.44 159.398H1401.32L1406.87 144.152H1409.18L1414.7 159.398H1412.59L1411.36 155.988ZM1410.78 154.36L1408.01 146.616L1405.24 154.36H1410.78ZM1416.37 153.348C1416.37 152.101 1416.62 151.016 1417.12 150.092C1417.61 149.153 1418.3 148.427 1419.18 147.914C1420.08 147.401 1421.1 147.144 1422.24 147.144C1423.72 147.144 1424.94 147.503 1425.89 148.222C1426.86 148.941 1427.5 149.938 1427.81 151.214H1425.65C1425.45 150.481 1425.04 149.901 1424.44 149.476C1423.86 149.051 1423.12 148.838 1422.24 148.838C1421.1 148.838 1420.17 149.234 1419.47 150.026C1418.77 150.803 1418.41 151.911 1418.41 153.348C1418.41 154.8 1418.77 155.922 1419.47 156.714C1420.17 157.506 1421.1 157.902 1422.24 157.902C1423.12 157.902 1423.86 157.697 1424.44 157.286C1425.03 156.875 1425.43 156.289 1425.65 155.526H1427.81C1427.49 156.758 1426.84 157.748 1425.87 158.496C1424.9 159.229 1423.69 159.596 1422.24 159.596C1421.1 159.596 1420.08 159.339 1419.18 158.826C1418.3 158.313 1417.61 157.587 1417.12 156.648C1416.62 155.709 1416.37 154.609 1416.37 153.348ZM1432.92 148.992V156.098C1432.92 156.685 1433.05 157.103 1433.3 157.352C1433.54 157.587 1433.98 157.704 1434.59 157.704H1436.07V159.398H1434.26C1433.15 159.398 1432.31 159.141 1431.76 158.628C1431.2 158.115 1430.92 157.271 1430.92 156.098V148.992H1429.36V147.342H1430.92V144.306H1432.92V147.342H1436.07V148.992H1432.92ZM1439.53 145.384C1439.15 145.384 1438.82 145.252 1438.56 144.988C1438.29 144.724 1438.16 144.401 1438.16 144.02C1438.16 143.639 1438.29 143.316 1438.56 143.052C1438.82 142.788 1439.15 142.656 1439.53 142.656C1439.89 142.656 1440.2 142.788 1440.45 143.052C1440.71 143.316 1440.85 143.639 1440.85 144.02C1440.85 144.401 1440.71 144.724 1440.45 144.988C1440.2 145.252 1439.89 145.384 1439.53 145.384ZM1440.49 147.342V159.398H1438.49V147.342H1440.49ZM1448.39 157.55L1452.13 147.342H1454.27L1449.54 159.398H1447.21L1442.48 147.342H1444.63L1448.39 157.55ZM1455.49 153.326C1455.49 152.094 1455.74 151.016 1456.24 150.092C1456.74 149.153 1457.42 148.427 1458.28 147.914C1459.16 147.401 1460.14 147.144 1461.21 147.144C1462.27 147.144 1463.18 147.371 1463.96 147.826C1464.74 148.281 1465.32 148.853 1465.7 149.542V147.342H1467.72V159.398H1465.7V157.154C1465.3 157.858 1464.71 158.445 1463.92 158.914C1463.14 159.369 1462.23 159.596 1461.19 159.596C1460.12 159.596 1459.15 159.332 1458.28 158.804C1457.42 158.276 1456.74 157.535 1456.24 156.582C1455.74 155.629 1455.49 154.543 1455.49 153.326ZM1465.7 153.348C1465.7 152.439 1465.52 151.647 1465.15 150.972C1464.78 150.297 1464.28 149.784 1463.65 149.432C1463.04 149.065 1462.35 148.882 1461.61 148.882C1460.86 148.882 1460.18 149.058 1459.56 149.41C1458.94 149.762 1458.45 150.275 1458.09 150.95C1457.72 151.625 1457.54 152.417 1457.54 153.326C1457.54 154.25 1457.72 155.057 1458.09 155.746C1458.45 156.421 1458.94 156.941 1459.56 157.308C1460.18 157.66 1460.86 157.836 1461.61 157.836C1462.35 157.836 1463.04 157.66 1463.65 157.308C1464.28 156.941 1464.78 156.421 1465.15 155.746C1465.52 155.057 1465.7 154.257 1465.7 153.348ZM1473.55 148.992V156.098C1473.55 156.685 1473.67 157.103 1473.92 157.352C1474.17 157.587 1474.6 157.704 1475.22 157.704H1476.69V159.398H1474.89C1473.78 159.398 1472.94 159.141 1472.38 158.628C1471.82 158.115 1471.55 157.271 1471.55 156.098V148.992H1469.98V147.342H1471.55V144.306H1473.55V147.342H1476.69V148.992H1473.55ZM1490.12 152.908C1490.12 153.289 1490.1 153.693 1490.05 154.118H1480.42C1480.49 155.306 1480.89 156.237 1481.63 156.912C1482.38 157.572 1483.28 157.902 1484.33 157.902C1485.2 157.902 1485.92 157.704 1486.49 157.308C1487.08 156.897 1487.49 156.355 1487.72 155.68H1489.88C1489.56 156.839 1488.91 157.785 1487.94 158.518C1486.97 159.237 1485.77 159.596 1484.33 159.596C1483.19 159.596 1482.16 159.339 1481.25 158.826C1480.36 158.313 1479.66 157.587 1479.14 156.648C1478.63 155.695 1478.37 154.595 1478.37 153.348C1478.37 152.101 1478.62 151.009 1479.12 150.07C1479.62 149.131 1480.32 148.413 1481.21 147.914C1482.12 147.401 1483.16 147.144 1484.33 147.144C1485.48 147.144 1486.49 147.393 1487.37 147.892C1488.25 148.391 1488.92 149.08 1489.39 149.96C1489.88 150.825 1490.12 151.808 1490.12 152.908ZM1488.05 152.49C1488.05 151.727 1487.88 151.075 1487.55 150.532C1487.21 149.975 1486.75 149.557 1486.16 149.278C1485.59 148.985 1484.95 148.838 1484.25 148.838C1483.23 148.838 1482.37 149.161 1481.65 149.806C1480.95 150.451 1480.54 151.346 1480.44 152.49H1488.05ZM1492.01 153.326C1492.01 152.094 1492.26 151.016 1492.76 150.092C1493.26 149.153 1493.94 148.427 1494.81 147.914C1495.69 147.401 1496.67 147.144 1497.76 147.144C1498.7 147.144 1499.57 147.364 1500.37 147.804C1501.18 148.229 1501.8 148.794 1502.22 149.498V143.118H1504.25V159.398H1502.22V157.132C1501.83 157.851 1501.24 158.445 1500.46 158.914C1499.69 159.369 1498.78 159.596 1497.73 159.596C1496.66 159.596 1495.69 159.332 1494.81 158.804C1493.94 158.276 1493.26 157.535 1492.76 156.582C1492.26 155.629 1492.01 154.543 1492.01 153.326ZM1502.22 153.348C1502.22 152.439 1502.04 151.647 1501.67 150.972C1501.31 150.297 1500.81 149.784 1500.18 149.432C1499.56 149.065 1498.88 148.882 1498.13 148.882C1497.38 148.882 1496.7 149.058 1496.08 149.41C1495.47 149.762 1494.98 150.275 1494.61 150.95C1494.24 151.625 1494.06 152.417 1494.06 153.326C1494.06 154.25 1494.24 155.057 1494.61 155.746C1494.98 156.421 1495.47 156.941 1496.08 157.308C1496.7 157.66 1497.38 157.836 1498.13 157.836C1498.88 157.836 1499.56 157.66 1500.18 157.308C1500.81 156.941 1501.31 156.421 1501.67 155.746C1502.04 155.057 1502.22 154.257 1502.22 153.348ZM1515.45 144.064V153.766C1515.45 155.13 1515.78 156.142 1516.44 156.802C1517.12 157.462 1518.05 157.792 1519.24 157.792C1520.41 157.792 1521.33 157.462 1521.99 156.802C1522.66 156.142 1523 155.13 1523 153.766V144.064H1525V153.744C1525 155.02 1524.74 156.098 1524.23 156.978C1523.72 157.843 1523.02 158.489 1522.14 158.914C1521.28 159.339 1520.3 159.552 1519.21 159.552C1518.13 159.552 1517.15 159.339 1516.27 158.914C1515.4 158.489 1514.71 157.843 1514.2 156.978C1513.7 156.098 1513.45 155.02 1513.45 153.744V144.064H1515.45ZM1532.61 159.596C1531.68 159.596 1530.86 159.442 1530.12 159.134C1529.39 158.811 1528.81 158.371 1528.38 157.814C1527.96 157.242 1527.72 156.589 1527.68 155.856H1529.75C1529.81 156.457 1530.09 156.949 1530.58 157.33C1531.1 157.711 1531.77 157.902 1532.59 157.902C1533.35 157.902 1533.95 157.733 1534.39 157.396C1534.83 157.059 1535.05 156.633 1535.05 156.12C1535.05 155.592 1534.82 155.203 1534.35 154.954C1533.88 154.69 1533.15 154.433 1532.17 154.184C1531.27 153.949 1530.54 153.715 1529.97 153.48C1529.41 153.231 1528.93 152.871 1528.52 152.402C1528.12 151.918 1527.92 151.287 1527.92 150.51C1527.92 149.894 1528.11 149.329 1528.47 148.816C1528.84 148.303 1529.36 147.899 1530.03 147.606C1530.71 147.298 1531.48 147.144 1532.34 147.144C1533.68 147.144 1534.76 147.481 1535.58 148.156C1536.4 148.831 1536.84 149.755 1536.9 150.928H1534.9C1534.85 150.297 1534.6 149.791 1534.13 149.41C1533.67 149.029 1533.06 148.838 1532.28 148.838C1531.56 148.838 1530.99 148.992 1530.56 149.3C1530.14 149.608 1529.92 150.011 1529.92 150.51C1529.92 150.906 1530.05 151.236 1530.3 151.5C1530.56 151.749 1530.89 151.955 1531.27 152.116C1531.66 152.263 1532.21 152.431 1532.89 152.622C1533.76 152.857 1534.46 153.091 1535.01 153.326C1535.55 153.546 1536.01 153.883 1536.39 154.338C1536.79 154.793 1536.99 155.387 1537.01 156.12C1537.01 156.78 1536.83 157.374 1536.46 157.902C1536.09 158.43 1535.57 158.848 1534.9 159.156C1534.24 159.449 1533.47 159.596 1532.61 159.596ZM1550.83 152.908C1550.83 153.289 1550.81 153.693 1550.77 154.118H1541.13C1541.21 155.306 1541.61 156.237 1542.34 156.912C1543.09 157.572 1543.99 157.902 1545.05 157.902C1545.91 157.902 1546.63 157.704 1547.2 157.308C1547.79 156.897 1548.2 156.355 1548.44 155.68H1550.59C1550.27 156.839 1549.62 157.785 1548.66 158.518C1547.69 159.237 1546.49 159.596 1545.05 159.596C1543.9 159.596 1542.88 159.339 1541.97 158.826C1541.07 158.313 1540.37 157.587 1539.86 156.648C1539.34 155.695 1539.09 154.595 1539.09 153.348C1539.09 152.101 1539.34 151.009 1539.83 150.07C1540.33 149.131 1541.03 148.413 1541.92 147.914C1542.83 147.401 1543.88 147.144 1545.05 147.144C1546.19 147.144 1547.2 147.393 1548.08 147.892C1548.96 148.391 1549.64 149.08 1550.11 149.96C1550.59 150.825 1550.83 151.808 1550.83 152.908ZM1548.77 152.49C1548.77 151.727 1548.6 151.075 1548.26 150.532C1547.92 149.975 1547.46 149.557 1546.87 149.278C1546.3 148.985 1545.66 148.838 1544.96 148.838C1543.95 148.838 1543.08 149.161 1542.36 149.806C1541.66 150.451 1541.26 151.346 1541.15 152.49H1548.77ZM1555.48 149.3C1555.83 148.611 1556.33 148.075 1556.98 147.694C1557.64 147.313 1558.43 147.122 1559.37 147.122V149.19H1558.85C1556.6 149.19 1555.48 150.407 1555.48 152.842V159.398H1553.48V147.342H1555.48V149.3ZM1565.95 159.596C1565.03 159.596 1564.2 159.442 1563.47 159.134C1562.73 158.811 1562.15 158.371 1561.73 157.814C1561.3 157.242 1561.07 156.589 1561.02 155.856H1563.09C1563.15 156.457 1563.43 156.949 1563.93 157.33C1564.44 157.711 1565.11 157.902 1565.93 157.902C1566.69 157.902 1567.29 157.733 1567.73 157.396C1568.17 157.059 1568.39 156.633 1568.39 156.12C1568.39 155.592 1568.16 155.203 1567.69 154.954C1567.22 154.69 1566.49 154.433 1565.51 154.184C1564.62 153.949 1563.88 153.715 1563.31 153.48C1562.75 153.231 1562.27 152.871 1561.86 152.402C1561.46 151.918 1561.27 151.287 1561.27 150.51C1561.27 149.894 1561.45 149.329 1561.82 148.816C1562.18 148.303 1562.7 147.899 1563.38 147.606C1564.05 147.298 1564.82 147.144 1565.69 147.144C1567.02 147.144 1568.1 147.481 1568.92 148.156C1569.74 148.831 1570.18 149.755 1570.24 150.928H1568.24C1568.2 150.297 1567.94 149.791 1567.47 149.41C1567.02 149.029 1566.4 148.838 1565.62 148.838C1564.9 148.838 1564.33 148.992 1563.91 149.3C1563.48 149.608 1563.27 150.011 1563.27 150.51C1563.27 150.906 1563.39 151.236 1563.64 151.5C1563.91 151.749 1564.23 151.955 1564.61 152.116C1565.01 152.263 1565.55 152.431 1566.24 152.622C1567.1 152.857 1567.81 153.091 1568.35 153.326C1568.89 153.546 1569.35 153.883 1569.74 154.338C1570.13 154.793 1570.34 155.387 1570.35 156.12C1570.35 156.78 1570.17 157.374 1569.8 157.902C1569.44 158.43 1568.91 158.848 1568.24 159.156C1567.58 159.449 1566.82 159.596 1565.95 159.596Z" fill="#666666"/>
</g>
<g filter="url(#filter2_d_1011_2233)">
<g filter="url(#filter3_d_1011_2233)">
<rect x="923" y="52" width="317.456" height="130" rx="30" fill="white"/>
</g>
<path d="M958.463 101.27V96.11H968.103V125.27H962.343V101.27H958.463ZM988.756 103.39C988.489 102.27 988.022 101.43 987.356 100.87C986.716 100.31 985.782 100.03 984.556 100.03C982.716 100.03 981.356 100.777 980.476 102.27C979.622 103.737 979.182 106.137 979.156 109.47C979.796 108.403 980.729 107.577 981.956 106.99C983.182 106.377 984.516 106.07 985.956 106.07C987.689 106.07 989.222 106.443 990.556 107.19C991.889 107.937 992.929 109.03 993.676 110.47C994.422 111.883 994.796 113.59 994.796 115.59C994.796 117.483 994.409 119.177 993.636 120.67C992.889 122.137 991.782 123.283 990.316 124.11C988.849 124.937 987.102 125.35 985.076 125.35C982.302 125.35 980.116 124.737 978.516 123.51C976.942 122.283 975.836 120.577 975.196 118.39C974.582 116.177 974.276 113.457 974.276 110.23C974.276 105.35 975.116 101.67 976.796 99.19C978.476 96.6834 981.129 95.43 984.756 95.43C987.556 95.43 989.729 96.19 991.276 97.71C992.822 99.23 993.716 101.123 993.956 103.39H988.756ZM984.676 110.67C983.262 110.67 982.076 111.083 981.116 111.91C980.156 112.737 979.676 113.937 979.676 115.51C979.676 117.083 980.116 118.323 980.996 119.23C981.902 120.137 983.169 120.59 984.796 120.59C986.236 120.59 987.369 120.15 988.196 119.27C989.049 118.39 989.476 117.203 989.476 115.71C989.476 114.163 989.062 112.937 988.236 112.03C987.436 111.123 986.249 110.67 984.676 110.67ZM1002.34 125.55C1001.33 125.55 1000.49 125.243 999.822 124.63C999.182 123.99 998.862 123.203 998.862 122.27C998.862 121.337 999.182 120.563 999.822 119.95C1000.49 119.31 1001.33 118.99 1002.34 118.99C1003.33 118.99 1004.14 119.31 1004.78 119.95C1005.42 120.563 1005.74 121.337 1005.74 122.27C1005.74 123.203 1005.42 123.99 1004.78 124.63C1004.14 125.243 1003.33 125.55 1002.34 125.55ZM1009.61 110.31C1009.61 105.697 1010.44 102.083 1012.09 99.47C1013.77 96.8567 1016.55 95.55 1020.41 95.55C1024.28 95.55 1027.04 96.8567 1028.69 99.47C1030.37 102.083 1031.21 105.697 1031.21 110.31C1031.21 114.95 1030.37 118.59 1028.69 121.23C1027.04 123.87 1024.28 125.19 1020.41 125.19C1016.55 125.19 1013.77 123.87 1012.09 121.23C1010.44 118.59 1009.61 114.95 1009.61 110.31ZM1025.69 110.31C1025.69 108.337 1025.56 106.683 1025.29 105.35C1025.05 103.99 1024.55 102.883 1023.77 102.03C1023.03 101.177 1021.91 100.75 1020.41 100.75C1018.92 100.75 1017.79 101.177 1017.01 102.03C1016.27 102.883 1015.76 103.99 1015.49 105.35C1015.25 106.683 1015.13 108.337 1015.13 110.31C1015.13 112.337 1015.25 114.043 1015.49 115.43C1015.73 116.79 1016.24 117.897 1017.01 118.75C1017.79 119.577 1018.92 119.99 1020.41 119.99C1021.91 119.99 1023.04 119.577 1023.81 118.75C1024.59 117.897 1025.09 116.79 1025.33 115.43C1025.57 114.043 1025.69 112.337 1025.69 110.31ZM1054.03 100.35L1043.39 125.27H1037.71L1048.43 100.99H1034.75V96.19H1054.03V100.35ZM1056.71 101.27V96.11H1066.35V125.27H1060.59V101.27H1056.71Z" fill="#222222" fill-opacity="0.3"/>
<path d="M966.544 151.72C966.544 150.224 966.881 148.882 967.556 147.694C968.23 146.491 969.147 145.553 970.306 144.878C971.479 144.203 972.777 143.866 974.2 143.866C975.872 143.866 977.331 144.269 978.578 145.076C979.824 145.883 980.734 147.027 981.306 148.508H978.908C978.482 147.584 977.866 146.873 977.06 146.374C976.268 145.875 975.314 145.626 974.2 145.626C973.129 145.626 972.168 145.875 971.318 146.374C970.467 146.873 969.8 147.584 969.316 148.508C968.832 149.417 968.59 150.488 968.59 151.72C968.59 152.937 968.832 154.008 969.316 154.932C969.8 155.841 970.467 156.545 971.318 157.044C972.168 157.543 973.129 157.792 974.2 157.792C975.314 157.792 976.268 157.55 977.06 157.066C977.866 156.567 978.482 155.856 978.908 154.932H981.306C980.734 156.399 979.824 157.535 978.578 158.342C977.331 159.134 975.872 159.53 974.2 159.53C972.777 159.53 971.479 159.2 970.306 158.54C969.147 157.865 968.23 156.934 967.556 155.746C966.881 154.558 966.544 153.216 966.544 151.72ZM990.27 147.122C991.179 147.122 992 147.32 992.734 147.716C993.467 148.097 994.039 148.677 994.45 149.454C994.875 150.231 995.088 151.177 995.088 152.292V159.398H993.108V152.578C993.108 151.375 992.807 150.459 992.206 149.828C991.604 149.183 990.783 148.86 989.742 148.86C988.686 148.86 987.842 149.19 987.212 149.85C986.596 150.51 986.288 151.471 986.288 152.732V159.398H984.286V143.118H986.288V149.058C986.684 148.442 987.226 147.965 987.916 147.628C988.62 147.291 989.404 147.122 990.27 147.122ZM997.61 153.326C997.61 152.094 997.859 151.016 998.358 150.092C998.857 149.153 999.539 148.427 1000.4 147.914C1001.28 147.401 1002.26 147.144 1003.33 147.144C1004.39 147.144 1005.3 147.371 1006.08 147.826C1006.86 148.281 1007.44 148.853 1007.82 149.542V147.342H1009.84V159.398H1007.82V157.154C1007.42 157.858 1006.83 158.445 1006.04 158.914C1005.26 159.369 1004.35 159.596 1003.31 159.596C1002.24 159.596 1001.27 159.332 1000.4 158.804C999.539 158.276 998.857 157.535 998.358 156.582C997.859 155.629 997.61 154.543 997.61 153.326ZM1007.82 153.348C1007.82 152.439 1007.63 151.647 1007.27 150.972C1006.9 150.297 1006.4 149.784 1005.77 149.432C1005.16 149.065 1004.47 148.882 1003.73 148.882C1002.98 148.882 1002.3 149.058 1001.68 149.41C1001.06 149.762 1000.57 150.275 1000.21 150.95C999.839 151.625 999.656 152.417 999.656 153.326C999.656 154.25 999.839 155.057 1000.21 155.746C1000.57 156.421 1001.06 156.941 1001.68 157.308C1002.3 157.66 1002.98 157.836 1003.73 157.836C1004.47 157.836 1005.16 157.66 1005.77 157.308C1006.4 156.941 1006.9 156.421 1007.27 155.746C1007.63 155.057 1007.82 154.257 1007.82 153.348ZM1019.1 147.122C1020.57 147.122 1021.75 147.569 1022.66 148.464C1023.57 149.344 1024.03 150.62 1024.03 152.292V159.398H1022.05V152.578C1022.05 151.375 1021.75 150.459 1021.15 149.828C1020.54 149.183 1019.72 148.86 1018.68 148.86C1017.63 148.86 1016.78 149.19 1016.15 149.85C1015.54 150.51 1015.23 151.471 1015.23 152.732V159.398H1013.23V147.342H1015.23V149.058C1015.62 148.442 1016.16 147.965 1016.83 147.628C1017.52 147.291 1018.28 147.122 1019.1 147.122ZM1033.17 147.122C1034.64 147.122 1035.83 147.569 1036.74 148.464C1037.64 149.344 1038.1 150.62 1038.1 152.292V159.398H1036.12V152.578C1036.12 151.375 1035.82 150.459 1035.22 149.828C1034.62 149.183 1033.79 148.86 1032.75 148.86C1031.7 148.86 1030.85 149.19 1030.22 149.85C1029.61 150.51 1029.3 151.471 1029.3 152.732V159.398H1027.3V147.342H1029.3V149.058C1029.7 148.442 1030.23 147.965 1030.91 147.628C1031.59 147.291 1032.35 147.122 1033.17 147.122ZM1052.37 152.908C1052.37 153.289 1052.35 153.693 1052.3 154.118H1042.67C1042.74 155.306 1043.14 156.237 1043.88 156.912C1044.63 157.572 1045.53 157.902 1046.58 157.902C1047.45 157.902 1048.17 157.704 1048.74 157.308C1049.33 156.897 1049.74 156.355 1049.97 155.68H1052.13C1051.81 156.839 1051.16 157.785 1050.19 158.518C1049.22 159.237 1048.02 159.596 1046.58 159.596C1045.44 159.596 1044.41 159.339 1043.5 158.826C1042.61 158.313 1041.91 157.587 1041.39 156.648C1040.88 155.695 1040.62 154.595 1040.62 153.348C1040.62 152.101 1040.87 151.009 1041.37 150.07C1041.87 149.131 1042.57 148.413 1043.46 147.914C1044.37 147.401 1045.41 147.144 1046.58 147.144C1047.73 147.144 1048.74 147.393 1049.62 147.892C1050.5 148.391 1051.17 149.08 1051.64 149.96C1052.13 150.825 1052.37 151.808 1052.37 152.908ZM1050.3 152.49C1050.3 151.727 1050.13 151.075 1049.8 150.532C1049.46 149.975 1049 149.557 1048.41 149.278C1047.84 148.985 1047.2 148.838 1046.5 148.838C1045.48 148.838 1044.62 149.161 1043.9 149.806C1043.2 150.451 1042.79 151.346 1042.69 152.49H1050.3ZM1057.01 143.118V159.398H1055.01V143.118H1057.01ZM1064.69 159.596C1063.77 159.596 1062.94 159.442 1062.21 159.134C1061.48 158.811 1060.9 158.371 1060.47 157.814C1060.05 157.242 1059.81 156.589 1059.77 155.856H1061.83C1061.89 156.457 1062.17 156.949 1062.67 157.33C1063.18 157.711 1063.85 157.902 1064.67 157.902C1065.44 157.902 1066.04 157.733 1066.48 157.396C1066.92 157.059 1067.14 156.633 1067.14 156.12C1067.14 155.592 1066.9 155.203 1066.43 154.954C1065.96 154.69 1065.24 154.433 1064.25 154.184C1063.36 153.949 1062.63 153.715 1062.05 153.48C1061.5 153.231 1061.01 152.871 1060.6 152.402C1060.21 151.918 1060.01 151.287 1060.01 150.51C1060.01 149.894 1060.19 149.329 1060.56 148.816C1060.93 148.303 1061.45 147.899 1062.12 147.606C1062.8 147.298 1063.57 147.144 1064.43 147.144C1065.77 147.144 1066.84 147.481 1067.66 148.156C1068.49 148.831 1068.93 149.755 1068.98 150.928H1066.98C1066.94 150.297 1066.68 149.791 1066.21 149.41C1065.76 149.029 1065.14 148.838 1064.36 148.838C1063.65 148.838 1063.07 148.992 1062.65 149.3C1062.22 149.608 1062.01 150.011 1062.01 150.51C1062.01 150.906 1062.14 151.236 1062.38 151.5C1062.65 151.749 1062.97 151.955 1063.35 152.116C1063.75 152.263 1064.29 152.431 1064.98 152.622C1065.85 152.857 1066.55 153.091 1067.09 153.326C1067.64 153.546 1068.1 153.883 1068.48 154.338C1068.87 154.793 1069.08 155.387 1069.09 156.12C1069.09 156.78 1068.91 157.374 1068.54 157.902C1068.18 158.43 1067.66 158.848 1066.98 159.156C1066.32 159.449 1065.56 159.596 1064.69 159.596Z" fill="#666666"/>
</g>
<g filter="url(#filter4_d_1011_2233)">
<g filter="url(#filter5_d_1011_2233)">
<rect x="487" y="52" width="317.456" height="130" rx="30" fill="white"/>
</g>
<path d="M524.903 118.95C527.463 116.817 529.503 115.043 531.023 113.63C532.543 112.19 533.81 110.697 534.823 109.15C535.837 107.603 536.343 106.083 536.343 104.59C536.343 103.23 536.023 102.163 535.383 101.39C534.743 100.617 533.757 100.23 532.423 100.23C531.09 100.23 530.063 100.683 529.343 101.59C528.623 102.47 528.25 103.683 528.223 105.23H522.783C522.89 102.03 523.837 99.6034 525.623 97.95C527.437 96.2967 529.73 95.47 532.503 95.47C535.543 95.47 537.877 96.2834 539.503 97.91C541.13 99.51 541.943 101.63 541.943 104.27C541.943 106.35 541.383 108.337 540.263 110.23C539.143 112.123 537.863 113.777 536.423 115.19C534.983 116.577 533.103 118.257 530.783 120.23H542.583V124.87H522.823V120.71L524.903 118.95ZM549.232 125.55C548.219 125.55 547.379 125.243 546.712 124.63C546.072 123.99 545.752 123.203 545.752 122.27C545.752 121.337 546.072 120.563 546.712 119.95C547.379 119.31 548.219 118.99 549.232 118.99C550.219 118.99 551.032 119.31 551.672 119.95C552.312 120.563 552.632 121.337 552.632 122.27C552.632 123.203 552.312 123.99 551.672 124.63C551.032 125.243 550.219 125.55 549.232 125.55ZM556.503 110.31C556.503 105.697 557.329 102.083 558.983 99.47C560.663 96.8567 563.436 95.55 567.303 95.55C571.169 95.55 573.929 96.8567 575.583 99.47C577.263 102.083 578.103 105.697 578.103 110.31C578.103 114.95 577.263 118.59 575.583 121.23C573.929 123.87 571.169 125.19 567.303 125.19C563.436 125.19 560.663 123.87 558.983 121.23C557.329 118.59 556.503 114.95 556.503 110.31ZM572.583 110.31C572.583 108.337 572.449 106.683 572.183 105.35C571.943 103.99 571.436 102.883 570.663 102.03C569.916 101.177 568.796 100.75 567.303 100.75C565.809 100.75 564.676 101.177 563.903 102.03C563.156 102.883 562.649 103.99 562.383 105.35C562.143 106.683 562.023 108.337 562.023 110.31C562.023 112.337 562.143 114.043 562.383 115.43C562.623 116.79 563.129 117.897 563.903 118.75C564.676 119.577 565.809 119.99 567.303 119.99C568.796 119.99 569.929 119.577 570.703 118.75C571.476 117.897 571.983 116.79 572.223 115.43C572.463 114.043 572.583 112.337 572.583 110.31ZM600.922 100.35L590.282 125.27H584.602L595.322 100.99H581.642V96.19H600.922V100.35ZM604.036 119.59V115.19L617.116 96.47H623.636V114.71H627.156V119.59H623.636V125.27H618.036V119.59H604.036ZM618.396 102.47L610.196 114.71H618.396V102.47Z" fill="#222222" fill-opacity="0.3"/>
<path d="M533.294 157.77H538.662V159.398H531.292V144.064H533.294V157.77ZM541.822 145.384C541.44 145.384 541.118 145.252 540.854 144.988C540.59 144.724 540.458 144.401 540.458 144.02C540.458 143.639 540.59 143.316 540.854 143.052C541.118 142.788 541.44 142.656 541.822 142.656C542.188 142.656 542.496 142.788 542.746 143.052C543.01 143.316 543.142 143.639 543.142 144.02C543.142 144.401 543.01 144.724 542.746 144.988C542.496 145.252 542.188 145.384 541.822 145.384ZM542.79 147.342V159.398H540.788V147.342H542.79ZM550.47 159.596C549.546 159.596 548.717 159.442 547.984 159.134C547.25 158.811 546.671 158.371 546.246 157.814C545.82 157.242 545.586 156.589 545.542 155.856H547.61C547.668 156.457 547.947 156.949 548.446 157.33C548.959 157.711 549.626 157.902 550.448 157.902C551.21 157.902 551.812 157.733 552.252 157.396C552.692 157.059 552.912 156.633 552.912 156.12C552.912 155.592 552.677 155.203 552.208 154.954C551.738 154.69 551.012 154.433 550.03 154.184C549.135 153.949 548.402 153.715 547.83 153.48C547.272 153.231 546.788 152.871 546.378 152.402C545.982 151.918 545.784 151.287 545.784 150.51C545.784 149.894 545.967 149.329 546.334 148.816C546.7 148.303 547.221 147.899 547.896 147.606C548.57 147.298 549.34 147.144 550.206 147.144C551.54 147.144 552.618 147.481 553.44 148.156C554.261 148.831 554.701 149.755 554.76 150.928H552.758C552.714 150.297 552.457 149.791 551.988 149.41C551.533 149.029 550.917 148.838 550.14 148.838C549.421 148.838 548.849 148.992 548.424 149.3C547.998 149.608 547.786 150.011 547.786 150.51C547.786 150.906 547.91 151.236 548.16 151.5C548.424 151.749 548.746 151.955 549.128 152.116C549.524 152.263 550.066 152.431 550.756 152.622C551.621 152.857 552.325 153.091 552.868 153.326C553.41 153.546 553.872 153.883 554.254 154.338C554.65 154.793 554.855 155.387 554.87 156.12C554.87 156.78 554.686 157.374 554.32 157.902C553.953 158.43 553.432 158.848 552.758 159.156C552.098 159.449 551.335 159.596 550.47 159.596ZM560.138 148.992V156.098C560.138 156.685 560.263 157.103 560.512 157.352C560.761 157.587 561.194 157.704 561.81 157.704H563.284V159.398H561.48C560.365 159.398 559.529 159.141 558.972 158.628C558.415 158.115 558.136 157.271 558.136 156.098V148.992H556.574V147.342H558.136V144.306H560.138V147.342H563.284V148.992H560.138ZM569.978 159.596C569.054 159.596 568.225 159.442 567.492 159.134C566.758 158.811 566.179 158.371 565.754 157.814C565.328 157.242 565.094 156.589 565.05 155.856H567.118C567.176 156.457 567.455 156.949 567.954 157.33C568.467 157.711 569.134 157.902 569.956 157.902C570.718 157.902 571.32 157.733 571.76 157.396C572.2 157.059 572.42 156.633 572.42 156.12C572.42 155.592 572.185 155.203 571.716 154.954C571.246 154.69 570.52 154.433 569.538 154.184C568.643 153.949 567.91 153.715 567.338 153.48C566.78 153.231 566.296 152.871 565.886 152.402C565.49 151.918 565.292 151.287 565.292 150.51C565.292 149.894 565.475 149.329 565.842 148.816C566.208 148.303 566.729 147.899 567.404 147.606C568.078 147.298 568.848 147.144 569.714 147.144C571.048 147.144 572.126 147.481 572.948 148.156C573.769 148.831 574.209 149.755 574.268 150.928H572.266C572.222 150.297 571.965 149.791 571.496 149.41C571.041 149.029 570.425 148.838 569.648 148.838C568.929 148.838 568.357 148.992 567.932 149.3C567.506 149.608 567.294 150.011 567.294 150.51C567.294 150.906 567.418 151.236 567.668 151.5C567.932 151.749 568.254 151.955 568.636 152.116C569.032 152.263 569.574 152.431 570.264 152.622C571.129 152.857 571.833 153.091 572.376 153.326C572.918 153.546 573.38 153.883 573.762 154.338C574.158 154.793 574.363 155.387 574.378 156.12C574.378 156.78 574.194 157.374 573.828 157.902C573.461 158.43 572.94 158.848 572.266 159.156C571.606 159.449 570.843 159.596 569.978 159.596Z" fill="#666666"/>
</g>
<g filter="url(#filter6_d_1011_2233)">
<g filter="url(#filter7_d_1011_2233)">
<rect x="52" y="52" width="317.456" height="130" rx="30" fill="white"/>
</g>
<path d="M87.4634 101.27V96.11H97.1034V125.27H91.3434V101.27H87.4634ZM104.396 118.95C106.956 116.817 108.996 115.043 110.516 113.63C112.036 112.19 113.302 110.697 114.316 109.15C115.329 107.603 115.836 106.083 115.836 104.59C115.836 103.23 115.516 102.163 114.876 101.39C114.236 100.617 113.249 100.23 111.916 100.23C110.582 100.23 109.556 100.683 108.836 101.59C108.116 102.47 107.742 103.683 107.716 105.23H102.276C102.382 102.03 103.329 99.6034 105.116 97.95C106.929 96.2967 109.222 95.47 111.996 95.47C115.036 95.47 117.369 96.2834 118.996 97.91C120.622 99.51 121.436 101.63 121.436 104.27C121.436 106.35 120.876 108.337 119.756 110.23C118.636 112.123 117.356 113.777 115.916 115.19C114.476 116.577 112.596 118.257 110.276 120.23H122.076V124.87H102.316V120.71L104.396 118.95ZM128.724 125.55C127.711 125.55 126.871 125.243 126.204 124.63C125.564 123.99 125.244 123.203 125.244 122.27C125.244 121.337 125.564 120.563 126.204 119.95C126.871 119.31 127.711 118.99 128.724 118.99C129.711 118.99 130.524 119.31 131.164 119.95C131.804 120.563 132.124 121.337 132.124 122.27C132.124 123.203 131.804 123.99 131.164 124.63C130.524 125.243 129.711 125.55 128.724 125.55ZM135.995 110.31C135.995 105.697 136.822 102.083 138.475 99.47C140.155 96.8567 142.928 95.55 146.795 95.55C150.662 95.55 153.422 96.8567 155.075 99.47C156.755 102.083 157.595 105.697 157.595 110.31C157.595 114.95 156.755 118.59 155.075 121.23C153.422 123.87 150.662 125.19 146.795 125.19C142.928 125.19 140.155 123.87 138.475 121.23C136.822 118.59 135.995 114.95 135.995 110.31ZM152.075 110.31C152.075 108.337 151.942 106.683 151.675 105.35C151.435 103.99 150.928 102.883 150.155 102.03C149.408 101.177 148.288 100.75 146.795 100.75C145.302 100.75 144.168 101.177 143.395 102.03C142.648 102.883 142.142 103.99 141.875 105.35C141.635 106.683 141.515 108.337 141.515 110.31C141.515 112.337 141.635 114.043 141.875 115.43C142.115 116.79 142.622 117.897 143.395 118.75C144.168 119.577 145.302 119.99 146.795 119.99C148.288 119.99 149.422 119.577 150.195 118.75C150.968 117.897 151.475 116.79 151.715 115.43C151.955 114.043 152.075 112.337 152.075 110.31ZM161.854 110.31C161.854 105.697 162.681 102.083 164.334 99.47C166.014 96.8567 168.788 95.55 172.654 95.55C176.521 95.55 179.281 96.8567 180.934 99.47C182.614 102.083 183.454 105.697 183.454 110.31C183.454 114.95 182.614 118.59 180.934 121.23C179.281 123.87 176.521 125.19 172.654 125.19C168.788 125.19 166.014 123.87 164.334 121.23C162.681 118.59 161.854 114.95 161.854 110.31ZM177.934 110.31C177.934 108.337 177.801 106.683 177.534 105.35C177.294 103.99 176.788 102.883 176.014 102.03C175.268 101.177 174.148 100.75 172.654 100.75C171.161 100.75 170.028 101.177 169.254 102.03C168.508 102.883 168.001 103.99 167.734 105.35C167.494 106.683 167.374 108.337 167.374 110.31C167.374 112.337 167.494 114.043 167.734 115.43C167.974 116.79 168.481 117.897 169.254 118.75C170.028 119.577 171.161 119.99 172.654 119.99C174.148 119.99 175.281 119.577 176.054 118.75C176.828 117.897 177.334 116.79 177.574 115.43C177.814 114.043 177.934 112.337 177.934 110.31ZM187.034 101.27V96.11H196.674V125.27H190.914V101.27H187.034Z" fill="#222222" fill-opacity="0.3"/>
<path d="M98.2937 144.064V159.398H96.2917V144.064H98.2937ZM107.58 147.122C109.046 147.122 110.234 147.569 111.144 148.464C112.053 149.344 112.508 150.62 112.508 152.292V159.398H110.528V152.578C110.528 151.375 110.227 150.459 109.626 149.828C109.024 149.183 108.203 148.86 107.162 148.86C106.106 148.86 105.262 149.19 104.632 149.85C104.016 150.51 103.708 151.471 103.708 152.732V159.398H101.706V147.342H103.708V149.058C104.104 148.442 104.639 147.965 105.314 147.628C106.003 147.291 106.758 147.122 107.58 147.122ZM120.684 148.992H118.154V159.398H116.152V148.992H114.59V147.342H116.152V146.484C116.152 145.135 116.497 144.152 117.186 143.536C117.89 142.905 119.012 142.59 120.552 142.59V144.262C119.672 144.262 119.049 144.438 118.682 144.79C118.33 145.127 118.154 145.692 118.154 146.484V147.342H120.684V148.992ZM125.02 143.118V159.398H123.018V143.118H125.02ZM139.124 147.342V159.398H137.122V157.616C136.741 158.232 136.206 158.716 135.516 159.068C134.842 159.405 134.094 159.574 133.272 159.574C132.334 159.574 131.49 159.383 130.742 159.002C129.994 158.606 129.4 158.019 128.96 157.242C128.535 156.465 128.322 155.519 128.322 154.404V147.342H130.302V154.14C130.302 155.328 130.603 156.245 131.204 156.89C131.806 157.521 132.627 157.836 133.668 157.836C134.739 157.836 135.582 157.506 136.198 156.846C136.814 156.186 137.122 155.225 137.122 153.964V147.342H139.124ZM153.505 152.908C153.505 153.289 153.483 153.693 153.439 154.118H143.803C143.876 155.306 144.279 156.237 145.013 156.912C145.761 157.572 146.663 157.902 147.719 157.902C148.584 157.902 149.303 157.704 149.875 157.308C150.461 156.897 150.872 156.355 151.107 155.68H153.263C152.94 156.839 152.295 157.785 151.327 158.518C150.359 159.237 149.156 159.596 147.719 159.596C146.575 159.596 145.548 159.339 144.639 158.826C143.744 158.313 143.04 157.587 142.527 156.648C142.013 155.695 141.757 154.595 141.757 153.348C141.757 152.101 142.006 151.009 142.505 150.07C143.003 149.131 143.7 148.413 144.595 147.914C145.504 147.401 146.545 147.144 147.719 147.144C148.863 147.144 149.875 147.393 150.755 147.892C151.635 148.391 152.309 149.08 152.779 149.96C153.263 150.825 153.505 151.808 153.505 152.908ZM151.437 152.49C151.437 151.727 151.268 151.075 150.931 150.532C150.593 149.975 150.131 149.557 149.545 149.278C148.973 148.985 148.335 148.838 147.631 148.838C146.619 148.838 145.753 149.161 145.035 149.806C144.331 150.451 143.927 151.346 143.825 152.49H151.437ZM162.021 147.122C163.488 147.122 164.676 147.569 165.585 148.464C166.494 149.344 166.949 150.62 166.949 152.292V159.398H164.969V152.578C164.969 151.375 164.668 150.459 164.067 149.828C163.466 149.183 162.644 148.86 161.603 148.86C160.547 148.86 159.704 149.19 159.073 149.85C158.457 150.51 158.149 151.471 158.149 152.732V159.398H156.147V147.342H158.149V149.058C158.545 148.442 159.08 147.965 159.755 147.628C160.444 147.291 161.2 147.122 162.021 147.122ZM169.471 153.348C169.471 152.101 169.721 151.016 170.219 150.092C170.718 149.153 171.407 148.427 172.287 147.914C173.182 147.401 174.201 147.144 175.345 147.144C176.827 147.144 178.044 147.503 178.997 148.222C179.965 148.941 180.603 149.938 180.911 151.214H178.755C178.55 150.481 178.147 149.901 177.545 149.476C176.959 149.051 176.225 148.838 175.345 148.838C174.201 148.838 173.277 149.234 172.573 150.026C171.869 150.803 171.517 151.911 171.517 153.348C171.517 154.8 171.869 155.922 172.573 156.714C173.277 157.506 174.201 157.902 175.345 157.902C176.225 157.902 176.959 157.697 177.545 157.286C178.132 156.875 178.535 156.289 178.755 155.526H180.911C180.589 156.758 179.943 157.748 178.975 158.496C178.007 159.229 176.797 159.596 175.345 159.596C174.201 159.596 173.182 159.339 172.287 158.826C171.407 158.313 170.718 157.587 170.219 156.648C169.721 155.709 169.471 154.609 169.471 153.348ZM194.583 152.908C194.583 153.289 194.561 153.693 194.517 154.118H184.881C184.954 155.306 185.357 156.237 186.091 156.912C186.839 157.572 187.741 157.902 188.797 157.902C189.662 157.902 190.381 157.704 190.953 157.308C191.539 156.897 191.95 156.355 192.185 155.68H194.341C194.018 156.839 193.373 157.785 192.405 158.518C191.437 159.237 190.234 159.596 188.797 159.596C187.653 159.596 186.626 159.339 185.717 158.826C184.822 158.313 184.118 157.587 183.605 156.648C183.091 155.695 182.835 154.595 182.835 153.348C182.835 152.101 183.084 151.009 183.583 150.07C184.081 149.131 184.778 148.413 185.673 147.914C186.582 147.401 187.623 147.144 188.797 147.144C189.941 147.144 190.953 147.393 191.833 147.892C192.713 148.391 193.387 149.08 193.857 149.96C194.341 150.825 194.583 151.808 194.583 152.908ZM192.515 152.49C192.515 151.727 192.346 151.075 192.009 150.532C191.671 149.975 191.209 149.557 190.623 149.278C190.051 148.985 189.413 148.838 188.709 148.838C187.697 148.838 186.831 149.161 186.113 149.806C185.409 150.451 185.005 151.346 184.903 152.49H192.515ZM199.227 149.3C199.579 148.611 200.078 148.075 200.723 147.694C201.383 147.313 202.183 147.122 203.121 147.122V149.19H202.593C200.349 149.19 199.227 150.407 199.227 152.842V159.398H197.225V147.342H199.227V149.3ZM209.7 159.596C208.776 159.596 207.948 159.442 207.214 159.134C206.481 158.811 205.902 158.371 205.476 157.814C205.051 157.242 204.816 156.589 204.772 155.856H206.84C206.899 156.457 207.178 156.949 207.676 157.33C208.19 157.711 208.857 157.902 209.678 157.902C210.441 157.902 211.042 157.733 211.482 157.396C211.922 157.059 212.142 156.633 212.142 156.12C212.142 155.592 211.908 155.203 211.438 154.954C210.969 154.69 210.243 154.433 209.26 154.184C208.366 153.949 207.632 153.715 207.06 153.48C206.503 153.231 206.019 152.871 205.608 152.402C205.212 151.918 205.014 151.287 205.014 150.51C205.014 149.894 205.198 149.329 205.564 148.816C205.931 148.303 206.452 147.899 207.126 147.606C207.801 147.298 208.571 147.144 209.436 147.144C210.771 147.144 211.849 147.481 212.67 148.156C213.492 148.831 213.932 149.755 213.99 150.928H211.988C211.944 150.297 211.688 149.791 211.218 149.41C210.764 149.029 210.148 148.838 209.37 148.838C208.652 148.838 208.08 148.992 207.654 149.3C207.229 149.608 207.016 150.011 207.016 150.51C207.016 150.906 207.141 151.236 207.39 151.5C207.654 151.749 207.977 151.955 208.358 152.116C208.754 152.263 209.297 152.431 209.986 152.622C210.852 152.857 211.556 153.091 212.098 153.326C212.641 153.546 213.103 153.883 213.484 154.338C213.88 154.793 214.086 155.387 214.1 156.12C214.1 156.78 213.917 157.374 213.55 157.902C213.184 158.43 212.663 158.848 211.988 159.156C211.328 159.449 210.566 159.596 209.7 159.596Z" fill="#666666"/>
</g>
<path d="M1651.94 115.758L1655.96 120.03L1637.22 140L1627.26 129.394L1631.28 125.121L1637.22 131.424L1651.94 115.758ZM1620.09 129.394L1628.7 138.485H1600V132.424C1600 125.727 1610.27 120.303 1622.96 120.303L1628.38 120.636L1620.09 129.394ZM1622.96 90C1626 90 1628.92 91.2771 1631.07 93.5502C1633.23 95.8234 1634.44 98.9065 1634.44 102.121C1634.44 105.336 1633.23 108.419 1631.07 110.692C1628.92 112.965 1626 114.242 1622.96 114.242C1619.91 114.242 1616.99 112.965 1614.84 110.692C1612.69 108.419 1611.48 105.336 1611.48 102.121C1611.48 98.9065 1612.69 95.8234 1614.84 93.5502C1616.99 91.2771 1619.91 90 1622.96 90Z" fill="#3F48CC"/>
<path d="M1215.16 90L1192.78 107.5H1187.18L1164.8 90M1162 107.5H1217.96V140H1162V107.5Z" stroke="#3F48CC" stroke-width="2"/>
<path d="M779.51 96.3235H743.725C743.456 96.3235 743.235 96.5618 743.235 96.8529V100.559C743.235 100.85 743.456 101.088 743.725 101.088H779.51C779.779 101.088 780 100.85 780 100.559V96.8529C780 96.5618 779.779 96.3235 779.51 96.3235ZM779.51 115.118H743.725C743.456 115.118 743.235 115.356 743.235 115.647V119.353C743.235 119.644 743.456 119.882 743.725 119.882H779.51C779.779 119.882 780 119.644 780 119.353V115.647C780 115.356 779.779 115.118 779.51 115.118ZM779.51 133.912H743.725C743.456 133.912 743.235 134.15 743.235 134.441V138.147C743.235 138.438 743.456 138.676 743.725 138.676H779.51C779.779 138.676 780 138.438 780 138.147V134.441C780 134.15 779.779 133.912 779.51 133.912ZM730 98.7059C730 99.1925 730.089 99.6744 730.261 100.124C730.434 100.574 730.686 100.982 731.005 101.326C731.324 101.67 731.702 101.943 732.118 102.13C732.535 102.316 732.981 102.412 733.431 102.412C733.882 102.412 734.328 102.316 734.745 102.13C735.161 101.943 735.539 101.67 735.858 101.326C736.176 100.982 736.429 100.574 736.602 100.124C736.774 99.6744 736.863 99.1925 736.863 98.7059C736.863 98.2192 736.774 97.7373 736.602 97.2877C736.429 96.8381 736.176 96.4296 735.858 96.0854C735.539 95.7413 735.161 95.4683 734.745 95.2821C734.328 95.0959 733.882 95 733.431 95C732.981 95 732.535 95.0959 732.118 95.2821C731.702 95.4683 731.324 95.7413 731.005 96.0854C730.686 96.4296 730.434 96.8381 730.261 97.2877C730.089 97.7373 730 98.2192 730 98.7059ZM730 117.5C730 117.987 730.089 118.469 730.261 118.918C730.434 119.368 730.686 119.776 731.005 120.12C731.324 120.465 731.702 120.738 732.118 120.924C732.535 121.11 732.981 121.206 733.431 121.206C733.882 121.206 734.328 121.11 734.745 120.924C735.161 120.738 735.539 120.465 735.858 120.12C736.176 119.776 736.429 119.368 736.602 118.918C736.774 118.469 736.863 117.987 736.863 117.5C736.863 117.013 736.774 116.531 736.602 116.082C736.429 115.632 736.176 115.224 735.858 114.88C735.539 114.535 735.161 114.262 734.745 114.076C734.328 113.89 733.882 113.794 733.431 113.794C732.981 113.794 732.535 113.89 732.118 114.076C731.702 114.262 731.324 114.535 731.005 114.88C730.686 115.224 730.434 115.632 730.261 116.082C730.089 116.531 730 117.013 730 117.5ZM730 136.294C730 136.781 730.089 137.263 730.261 137.712C730.434 138.162 730.686 138.57 731.005 138.915C731.324 139.259 731.702 139.532 732.118 139.718C732.535 139.904 732.981 140 733.431 140C733.882 140 734.328 139.904 734.745 139.718C735.161 139.532 735.539 139.259 735.858 138.915C736.176 138.57 736.429 138.162 736.602 137.712C736.774 137.263 736.863 136.781 736.863 136.294C736.863 135.807 736.774 135.326 736.602 134.876C736.429 134.426 736.176 134.018 735.858 133.674C735.539 133.33 735.161 133.057 734.745 132.87C734.328 132.684 733.882 132.588 733.431 132.588C732.981 132.588 732.535 132.684 732.118 132.87C731.702 133.057 731.324 133.33 731.005 133.674C730.686 134.018 730.434 134.426 730.261 134.876C730.089 135.326 730 135.807 730 136.294Z" fill="#3F48CC"/>
<path d="M313.567 127.669C314.83 128.206 315.967 128.865 316.977 129.647C317.988 130.428 318.862 131.307 319.6 132.283C320.339 133.26 320.892 134.302 321.262 135.408C321.631 136.515 321.825 137.671 321.844 138.875H318.114C318.114 137.589 317.822 136.377 317.24 135.237C316.657 134.098 315.86 133.105 314.85 132.259C313.839 131.413 312.644 130.737 311.265 130.233C309.885 129.728 308.438 129.484 306.922 129.5C305.368 129.5 303.92 129.744 302.58 130.233C301.239 130.721 300.054 131.388 299.024 132.235C297.994 133.081 297.188 134.082 296.605 135.237C296.022 136.393 295.731 137.606 295.731 138.875H292C292 137.687 292.194 136.539 292.583 135.433C292.971 134.326 293.525 133.284 294.244 132.308C294.963 131.331 295.828 130.452 296.838 129.671C297.848 128.89 298.995 128.223 300.277 127.669C298.839 126.774 297.722 125.667 296.925 124.349C296.129 123.031 295.731 121.623 295.731 120.125C295.731 118.84 296.022 117.627 296.605 116.488C297.188 115.348 297.984 114.356 298.995 113.509C300.005 112.663 301.19 111.987 302.55 111.483C303.911 110.978 305.368 110.734 306.922 110.75C308.71 110.75 310.39 111.084 311.964 111.751C313.538 112.419 314.859 113.355 315.928 114.559C316.666 113.338 317.609 112.248 318.755 111.288C319.901 110.327 321.203 109.538 322.66 108.919C321.223 108.024 320.105 106.918 319.309 105.599C318.512 104.281 318.114 102.873 318.114 101.376C318.114 100.09 318.405 98.8773 318.988 97.738C319.571 96.5987 320.368 95.6059 321.378 94.7595C322.388 93.9132 323.574 93.2377 324.934 92.7332C326.294 92.2286 327.751 91.9845 329.306 92.0008C330.841 92.0008 332.288 92.2449 333.648 92.7332C335.008 93.2214 336.193 93.8888 337.204 94.7351C338.214 95.5814 339.021 96.5824 339.623 97.738C340.225 98.8936 340.517 100.106 340.497 101.376C340.497 102.873 340.099 104.281 339.302 105.599C338.506 106.918 337.388 108.024 335.951 108.919C337.214 109.457 338.35 110.116 339.361 110.897C340.371 111.678 341.245 112.557 341.984 113.534C342.722 114.51 343.276 115.552 343.645 116.659C344.014 117.765 344.208 118.921 344.228 120.125H340.497C340.497 118.84 340.206 117.627 339.623 116.488C339.04 115.348 338.243 114.356 337.233 113.509C336.223 112.663 335.028 111.987 333.648 111.483C332.269 110.978 330.821 110.734 329.306 110.75C327.751 110.75 326.304 110.995 324.963 111.483C323.622 111.971 322.437 112.638 321.407 113.485C320.377 114.331 319.571 115.332 318.988 116.488C318.405 117.643 318.114 118.856 318.114 120.125C318.114 121.623 317.716 123.031 316.919 124.349C316.122 125.667 315.005 126.774 313.567 127.669ZM321.844 101.376C321.844 102.238 322.039 103.044 322.427 103.793C322.816 104.541 323.35 105.209 324.03 105.794C324.71 106.38 325.497 106.828 326.391 107.137C327.285 107.446 328.256 107.609 329.306 107.626C330.335 107.626 331.297 107.463 332.191 107.137C333.085 106.812 333.881 106.364 334.581 105.794C335.28 105.225 335.815 104.566 336.184 103.817C336.553 103.068 336.747 102.255 336.767 101.376C336.767 100.513 336.572 99.7074 336.184 98.9587C335.795 98.21 335.261 97.5427 334.581 96.9567C333.901 96.3708 333.114 95.9232 332.22 95.614C331.326 95.3047 330.355 95.142 329.306 95.1257C328.276 95.1257 327.314 95.2885 326.42 95.614C325.526 95.9395 324.73 96.3871 324.03 96.9567C323.331 97.5264 322.796 98.1856 322.427 98.9343C322.058 99.6829 321.864 100.497 321.844 101.376ZM299.461 120.125C299.461 120.988 299.655 121.794 300.044 122.542C300.433 123.291 300.967 123.958 301.647 124.544C302.327 125.13 303.114 125.578 304.008 125.887C304.901 126.196 305.873 126.359 306.922 126.375C307.952 126.375 308.914 126.212 309.808 125.887C310.701 125.561 311.498 125.114 312.197 124.544C312.897 123.975 313.431 123.315 313.8 122.567C314.17 121.818 314.364 121.004 314.383 120.125C314.383 119.263 314.189 118.457 313.8 117.708C313.412 116.96 312.878 116.292 312.197 115.706C311.517 115.121 310.73 114.673 309.837 114.364C308.943 114.054 307.971 113.892 306.922 113.875C305.892 113.875 304.931 114.038 304.037 114.364C303.143 114.689 302.346 115.137 301.647 115.706C300.948 116.276 300.413 116.935 300.044 117.684C299.675 118.433 299.481 119.246 299.461 120.125ZM343.295 142L334.901 136.507L326.508 142L329.888 133.211L321.844 127.938H331.899L334.901 120.125L337.903 127.938H347.958L339.914 133.211L343.295 142Z" fill="black"/>
<path d="M313.567 127.669C314.83 128.206 315.967 128.865 316.977 129.647C317.988 130.428 318.862 131.307 319.6 132.283C320.339 133.26 320.892 134.302 321.262 135.408C321.631 136.515 321.825 137.671 321.844 138.875H318.114C318.114 137.589 317.822 136.377 317.24 135.237C316.657 134.098 315.86 133.105 314.85 132.259C313.839 131.413 312.644 130.737 311.265 130.233C309.885 129.728 308.438 129.484 306.922 129.5C305.368 129.5 303.92 129.744 302.58 130.233C301.239 130.721 300.054 131.388 299.024 132.235C297.994 133.081 297.188 134.082 296.605 135.237C296.022 136.393 295.731 137.606 295.731 138.875H292C292 137.687 292.194 136.539 292.583 135.433C292.971 134.326 293.525 133.284 294.244 132.308C294.963 131.331 295.828 130.452 296.838 129.671C297.848 128.89 298.995 128.223 300.277 127.669C298.839 126.774 297.722 125.667 296.925 124.349C296.129 123.031 295.731 121.623 295.731 120.125C295.731 118.84 296.022 117.627 296.605 116.488C297.188 115.348 297.984 114.356 298.995 113.509C300.005 112.663 301.19 111.987 302.55 111.483C303.911 110.978 305.368 110.734 306.922 110.75C308.71 110.75 310.39 111.084 311.964 111.751C313.538 112.419 314.859 113.355 315.928 114.559C316.666 113.338 317.609 112.248 318.755 111.288C319.901 110.327 321.203 109.538 322.66 108.919C321.223 108.024 320.105 106.918 319.309 105.599C318.512 104.281 318.114 102.873 318.114 101.376C318.114 100.09 318.405 98.8773 318.988 97.738C319.571 96.5987 320.368 95.6059 321.378 94.7595C322.388 93.9132 323.574 93.2377 324.934 92.7332C326.294 92.2286 327.751 91.9845 329.306 92.0008C330.841 92.0008 332.288 92.2449 333.648 92.7332C335.008 93.2214 336.193 93.8888 337.204 94.7351C338.214 95.5814 339.021 96.5824 339.623 97.738C340.225 98.8936 340.517 100.106 340.497 101.376C340.497 102.873 340.099 104.281 339.302 105.599C338.506 106.918 337.388 108.024 335.951 108.919C337.214 109.457 338.35 110.116 339.361 110.897C340.371 111.678 341.245 112.557 341.984 113.534C342.722 114.51 343.276 115.552 343.645 116.659C344.014 117.765 344.208 118.921 344.228 120.125H340.497C340.497 118.84 340.206 117.627 339.623 116.488C339.04 115.348 338.243 114.356 337.233 113.509C336.223 112.663 335.028 111.987 333.648 111.483C332.269 110.978 330.821 110.734 329.306 110.75C327.751 110.75 326.304 110.995 324.963 111.483C323.622 111.971 322.437 112.638 321.407 113.485C320.377 114.331 319.571 115.332 318.988 116.488C318.405 117.643 318.114 118.856 318.114 120.125C318.114 121.623 317.716 123.031 316.919 124.349C316.122 125.667 315.005 126.774 313.567 127.669ZM321.844 101.376C321.844 102.238 322.039 103.044 322.427 103.793C322.816 104.541 323.35 105.209 324.03 105.794C324.71 106.38 325.497 106.828 326.391 107.137C327.285 107.446 328.256 107.609 329.306 107.626C330.335 107.626 331.297 107.463 332.191 107.137C333.085 106.812 333.881 106.364 334.581 105.794C335.28 105.225 335.815 104.566 336.184 103.817C336.553 103.068 336.747 102.255 336.767 101.376C336.767 100.513 336.572 99.7074 336.184 98.9587C335.795 98.21 335.261 97.5427 334.581 96.9567C333.901 96.3708 333.114 95.9232 332.22 95.614C331.326 95.3047 330.355 95.142 329.306 95.1257C328.276 95.1257 327.314 95.2885 326.42 95.614C325.526 95.9395 324.73 96.3871 324.03 96.9567C323.331 97.5264 322.796 98.1856 322.427 98.9343C322.058 99.6829 321.864 100.497 321.844 101.376ZM299.461 120.125C299.461 120.988 299.655 121.794 300.044 122.542C300.433 123.291 300.967 123.958 301.647 124.544C302.327 125.13 303.114 125.578 304.008 125.887C304.901 126.196 305.873 126.359 306.922 126.375C307.952 126.375 308.914 126.212 309.808 125.887C310.701 125.561 311.498 125.114 312.197 124.544C312.897 123.975 313.431 123.315 313.8 122.567C314.17 121.818 314.364 121.004 314.383 120.125C314.383 119.263 314.189 118.457 313.8 117.708C313.412 116.96 312.878 116.292 312.197 115.706C311.517 115.121 310.73 114.673 309.837 114.364C308.943 114.054 307.971 113.892 306.922 113.875C305.892 113.875 304.931 114.038 304.037 114.364C303.143 114.689 302.346 115.137 301.647 115.706C300.948 116.276 300.413 116.935 300.044 117.684C299.675 118.433 299.481 119.246 299.461 120.125ZM343.295 142L334.901 136.507L326.508 142L329.888 133.211L321.844 127.938H331.899L334.901 120.125L337.903 127.938H347.958L339.914 133.211L343.295 142Z" fill="#3F48CC"/>
<defs>
<filter id="filter0_d_1011_2233" x="1358" y="52" width="340.415" height="138" filterUnits="userSpaceOnUse" color-interpolation-filters="sRGB">
<feFlood flood-opacity="0" result="BackgroundImageFix"/>
<feColorMatrix in="SourceAlpha" type="matrix" values="0 0 0 0 0 0 0 0 0 0 0 0 0 0 0 0 0 0 127 0" result="hardAlpha"/>
<feOffset dx="4" dy="4"/>
<feGaussianBlur stdDeviation="2"/>
<feComposite in2="hardAlpha" operator="out"/>
<feColorMatrix type="matrix" values="0 0 0 0 0 0 0 0 0 0 0 0 0 0 0 0 0 0 0.25 0"/>
<feBlend mode="normal" in2="BackgroundImageFix" result="effect1_dropShadow_1011_2233"/>
<feBlend mode="normal" in="SourceGraphic" in2="effect1_dropShadow_1011_2233" result="shape"/>
</filter>
<filter id="filter1_d_1011_2233" x="1306" y="0" width="461.455" height="274" filterUnits="userSpaceOnUse" color-interpolation-filters="sRGB">
<feFlood flood-opacity="0" result="BackgroundImageFix"/>
<feColorMatrix in="SourceAlpha" type="matrix" values="0 0 0 0 0 0 0 0 0 0 0 0 0 0 0 0 0 0 127 0" result="hardAlpha"/>
<feOffset dx="20" dy="20"/>
<feGaussianBlur stdDeviation="36"/>
<feComposite in2="hardAlpha" operator="out"/>
<feColorMatrix type="matrix" values="0 0 0 0 0.4 0 0 0 0 0.4 0 0 0 0 0.4 0 0 0 0.1 0"/>
<feBlend mode="normal" in2="BackgroundImageFix" result="effect1_dropShadow_1011_2233"/>
<feBlend mode="normal" in="SourceGraphic" in2="effect1_dropShadow_1011_2233" result="shape"/>
</filter>
<filter id="filter2_d_1011_2233" x="923" y="52" width="340.415" height="138" filterUnits="userSpaceOnUse" color-interpolation-filters="sRGB">
<feFlood flood-opacity="0" result="BackgroundImageFix"/>
<feColorMatrix in="SourceAlpha" type="matrix" values="0 0 0 0 0 0 0 0 0 0 0 0 0 0 0 0 0 0 127 0" result="hardAlpha"/>
<feOffset dx="4" dy="4"/>
<feGaussianBlur stdDeviation="2"/>
<feComposite in2="hardAlpha" operator="out"/>
<feColorMatrix type="matrix" values="0 0 0 0 0 0 0 0 0 0 0 0 0 0 0 0 0 0 0.25 0"/>
<feBlend mode="normal" in2="BackgroundImageFix" result="effect1_dropShadow_1011_2233"/>
<feBlend mode="normal" in="SourceGraphic" in2="effect1_dropShadow_1011_2233" result="shape"/>
</filter>
<filter id="filter3_d_1011_2233" x="871" y="0" width="461.455" height="274" filterUnits="userSpaceOnUse" color-interpolation-filters="sRGB">
<feFlood flood-opacity="0" result="BackgroundImageFix"/>
<feColorMatrix in="SourceAlpha" type="matrix" values="0 0 0 0 0 0 0 0 0 0 0 0 0 0 0 0 0 0 127 0" result="hardAlpha"/>
<feOffset dx="20" dy="20"/>
<feGaussianBlur stdDeviation="36"/>
<feComposite in2="hardAlpha" operator="out"/>
<feColorMatrix type="matrix" values="0 0 0 0 0.4 0 0 0 0 0.4 0 0 0 0 0.4 0 0 0 0.1 0"/>
<feBlend mode="normal" in2="BackgroundImageFix" result="effect1_dropShadow_1011_2233"/>
<feBlend mode="normal" in="SourceGraphic" in2="effect1_dropShadow_1011_2233" result="shape"/>
</filter>
<filter id="filter4_d_1011_2233" x="487" y="52" width="340.415" height="138" filterUnits="userSpaceOnUse" color-interpolation-filters="sRGB">
<feFlood flood-opacity="0" result="BackgroundImageFix"/>
<feColorMatrix in="SourceAlpha" type="matrix" values="0 0 0 0 0 0 0 0 0 0 0 0 0 0 0 0 0 0 127 0" result="hardAlpha"/>
<feOffset dx="4" dy="4"/>
<feGaussianBlur stdDeviation="2"/>
<feComposite in2="hardAlpha" operator="out"/>
<feColorMatrix type="matrix" values="0 0 0 0 0 0 0 0 0 0 0 0 0 0 0 0 0 0 0.25 0"/>
<feBlend mode="normal" in2="BackgroundImageFix" result="effect1_dropShadow_1011_2233"/>
<feBlend mode="normal" in="SourceGraphic" in2="effect1_dropShadow_1011_2233" result="shape"/>
</filter>
<filter id="filter5_d_1011_2233" x="435" y="0" width="461.455" height="274" filterUnits="userSpaceOnUse" color-interpolation-filters="sRGB">
<feFlood flood-opacity="0" result="BackgroundImageFix"/>
<feColorMatrix in="SourceAlpha" type="matrix" values="0 0 0 0 0 0 0 0 0 0 0 0 0 0 0 0 0 0 127 0" result="hardAlpha"/>
<feOffset dx="20" dy="20"/>
<feGaussianBlur stdDeviation="36"/>
<feComposite in2="hardAlpha" operator="out"/>
<feColorMatrix type="matrix" values="0 0 0 0 0.4 0 0 0 0 0.4 0 0 0 0 0.4 0 0 0 0.1 0"/>
<feBlend mode="normal" in2="BackgroundImageFix" result="effect1_dropShadow_1011_2233"/>
<feBlend mode="normal" in="SourceGraphic" in2="effect1_dropShadow_1011_2233" result="shape"/>
</filter>
<filter id="filter6_d_1011_2233" x="52" y="52" width="340.415" height="138" filterUnits="userSpaceOnUse" color-interpolation-filters="sRGB">
<feFlood flood-opacity="0" result="BackgroundImageFix"/>
<feColorMatrix in="SourceAlpha" type="matrix" values="0 0 0 0 0 0 0 0 0 0 0 0 0 0 0 0 0 0 127 0" result="hardAlpha"/>
<feOffset dx="4" dy="4"/>
<feGaussianBlur stdDeviation="2"/>
<feComposite in2="hardAlpha" operator="out"/>
<feColorMatrix type="matrix" values="0 0 0 0 0 0 0 0 0 0 0 0 0 0 0 0 0 0 0.25 0"/>
<feBlend mode="normal" in2="BackgroundImageFix" result="effect1_dropShadow_1011_2233"/>
<feBlend mode="normal" in="SourceGraphic" in2="effect1_dropShadow_1011_2233" result="shape"/>
</filter>
<filter id="filter7_d_1011_2233" x="0" y="0" width="461.455" height="274" filterUnits="userSpaceOnUse" color-interpolation-filters="sRGB">
<feFlood flood-opacity="0" result="BackgroundImageFix"/>
<feColorMatrix in="SourceAlpha" type="matrix" values="0 0 0 0 0 0 0 0 0 0 0 0 0 0 0 0 0 0 127 0" result="hardAlpha"/>
<feOffset dx="20" dy="20"/>
<feGaussianBlur stdDeviation="36"/>
<feComposite in2="hardAlpha" operator="out"/>
<feColorMatrix type="matrix" values="0 0 0 0 0.4 0 0 0 0 0.4 0 0 0 0 0.4 0 0 0 0.1 0"/>
<feBlend mode="normal" in2="BackgroundImageFix" result="effect1_dropShadow_1011_2233"/>
<feBlend mode="normal" in="SourceGraphic" in2="effect1_dropShadow_1011_2233" result="shape"/>
</filter>
</defs>
</svg>
