<svg width="21" height="18" viewBox="0 0 21 18" fill="none" xmlns="http://www.w3.org/2000/svg">
<path d="M20.5366 2.8187C20.4161 2.27389 20.1811 1.7772 19.8551 1.3781C19.529 0.979001 19.1232 0.691408 18.678 0.543961C17.0484 0 10.4895 0 10.4895 0C10.4895 0 3.93036 0.0164654 2.3007 0.560426C1.85555 0.707882 1.44973 0.99549 1.12365 1.39461C0.797573 1.79373 0.562614 2.29044 0.442172 2.83526C-0.0507624 6.37914 -0.241981 11.7792 0.455707 15.1813C0.576162 15.7261 0.811127 16.2228 1.13721 16.6219C1.46328 17.021 1.8691 17.3086 2.31424 17.456C3.9439 18 10.5029 18 10.5029 18C10.5029 18 17.0618 18 18.6914 17.456C19.1366 17.3086 19.5424 17.021 19.8685 16.6219C20.1946 16.2228 20.4296 15.7261 20.55 15.1813C21.0699 11.6324 21.2301 6.23567 20.5366 2.8187Z" fill="#FF0000"/>
<path d="M8 13L14 9L8 5V13Z" fill="white"/>
</svg>
